<svg xmlns="http://www.w3.org/2000/svg" xmlns:xlink="http://www.w3.org/1999/xlink" width="1920" zoomAndPan="magnify" viewBox="0 0 1440 809.999993" height="1080" preserveAspectRatio="xMidYMid meet" version="1.0"><defs><clipPath id="2fe234909a"><path d="M 175.648438 729 L 418.648438 729 L 418.648438 810 L 175.648438 810 Z M 175.648438 729 " clip-rule="nonzero"/></clipPath><clipPath id="31c88f737b"><path d="M 0 336.664062 L 271 336.664062 L 271 810 L 0 810 Z M 0 336.664062 " clip-rule="nonzero"/></clipPath><clipPath id="1b2ea31e05"><path d="M 0 336.664062 L 270.476562 810 L -270.476562 810 Z M 0 336.664062 " clip-rule="nonzero"/></clipPath><clipPath id="23edc743a4"><path d="M 1293.785156 486.046875 L 1440 486.046875 L 1440 809.957031 L 1293.785156 809.957031 Z M 1293.785156 486.046875 " clip-rule="nonzero"/></clipPath><clipPath id="97bac38d07"><path d="M 1326 153 L 1440 153 L 1440 687 L 1326 687 Z M 1326 153 " clip-rule="nonzero"/></clipPath><clipPath id="01d0a2fa6f"><path d="M 1185.03125 234.734375 L 1701.984375 72.707031 L 1843.550781 524.375 L 1326.597656 686.402344 Z M 1185.03125 234.734375 " clip-rule="nonzero"/></clipPath><clipPath id="047c511d66"><path d="M 1443.128906 153.839844 L 1842.792969 524.613281 L 1326.597656 686.402344 Z M 1443.128906 153.839844 " clip-rule="nonzero"/></clipPath></defs><g clip-path="url(#2fe234909a)"><path fill="#050044" d="M 175.648438 729 L 418.648438 729 L 418.648438 972 L 175.648438 972 Z M 175.648438 729 " fill-opacity="1" fill-rule="nonzero"/></g><g clip-path="url(#31c88f737b)"><g clip-path="url(#1b2ea31e05)"><path fill="#411e8a" d="M -270.476562 336.664062 L 271.269531 336.664062 L 271.269531 810 L -270.476562 810 Z M -270.476562 336.664062 " fill-opacity="1" fill-rule="nonzero"/></g></g><g clip-path="url(#23edc743a4)"><path fill="#050044" d="M 1673.285156 486.046875 L 1606.328125 809.957031 L 1293.785156 809.957031 L 1371.359375 486.046875 L 1673.285156 486.046875 " fill-opacity="1" fill-rule="nonzero"/></g><g clip-path="url(#97bac38d07)"><g clip-path="url(#01d0a2fa6f)"><g clip-path="url(#047c511d66)"><path fill="#411e8a" d="M 1185.03125 234.734375 L 1701.984375 72.707031 L 1843.550781 524.375 L 1326.597656 686.402344 Z M 1185.03125 234.734375 " fill-opacity="1" fill-rule="nonzero"/></g></g></g></svg>