<svg xmlns="http://www.w3.org/2000/svg" xmlns:xlink="http://www.w3.org/1999/xlink" width="1920" zoomAndPan="magnify" viewBox="0 0 1440 809.999993" height="1080" preserveAspectRatio="xMidYMid meet" version="1.0"><defs><clipPath id="18188642f6"><path d="M 178.402344 0 L 421.402344 0 L 421.402344 25.550781 L 178.402344 25.550781 Z M 178.402344 0 " clip-rule="nonzero"/></clipPath><clipPath id="2adfc2f851"><path d="M 0 0 L 272.898438 0 L 272.898438 473.332031 L 0 473.332031 Z M 0 0 " clip-rule="nonzero"/></clipPath><clipPath id="4ac919e1bb"><path d="M 2.421875 473.332031 L -268.058594 -0.00390625 L 272.898438 -0.00390625 Z M 2.421875 473.332031 " clip-rule="nonzero"/></clipPath><clipPath id="0d9ef5b844"><path d="M 1287 0 L 1440 0 L 1440 295 L 1287 295 Z M 1287 0 " clip-rule="nonzero"/></clipPath><clipPath id="54b07d7213"><path d="M 1228.789062 48.542969 L 1516.359375 -199.09375 L 1727.78125 46.421875 L 1440.210938 294.058594 Z M 1228.789062 48.542969 " clip-rule="nonzero"/></clipPath><clipPath id="00eb2664a7"><path d="M 1228.789062 48.542969 L 1516.359375 -199.09375 L 1727.78125 46.421875 L 1440.210938 294.058594 Z M 1228.789062 48.542969 " clip-rule="nonzero"/></clipPath><clipPath id="c491e0258e"><path d="M 1228.820312 48.578125 L 1516.390625 -199.058594 L 1727.753906 46.390625 L 1440.183594 294.027344 Z M 1228.820312 48.578125 " clip-rule="nonzero"/></clipPath></defs><g clip-path="url(#18188642f6)"><path fill="#050044" d="M 178.402344 -217.449219 L 421.402344 -217.449219 L 421.402344 25.550781 L 178.402344 25.550781 Z M 178.402344 -217.449219 " fill-opacity="1" fill-rule="nonzero"/></g><g clip-path="url(#2adfc2f851)"><g clip-path="url(#4ac919e1bb)"><path fill="#411e8a" d="M 272.898438 473.332031 L -268.851562 473.332031 L -268.851562 -0.00390625 L 272.898438 -0.00390625 Z M 272.898438 473.332031 " fill-opacity="1" fill-rule="nonzero"/></g></g><g clip-path="url(#0d9ef5b844)"><g clip-path="url(#54b07d7213)"><g clip-path="url(#00eb2664a7)"><g clip-path="url(#c491e0258e)"><path fill="#050044" d="M 1516.390625 -199.058594 L 1677.015625 90.082031 L 1440.183594 294.027344 L 1287.601562 -2.039062 L 1516.390625 -199.058594 " fill-opacity="1" fill-rule="nonzero"/></g></g></g></g></svg>