<svg xmlns="http://www.w3.org/2000/svg" xmlns:xlink="http://www.w3.org/1999/xlink" width="100" zoomAndPan="magnify" viewBox="0 0 75 74.999997" height="100" preserveAspectRatio="xMidYMid meet" version="1.0"><defs><clipPath id="1e15c0275c"><path d="M 40 0 L 69.84375 0 L 69.84375 29 L 40 29 Z M 40 0 " clip-rule="nonzero"/></clipPath><clipPath id="a0f5c4cb9b"><path d="M 5.34375 16 L 37 16 L 37 48 L 5.34375 48 Z M 5.34375 16 " clip-rule="nonzero"/></clipPath></defs><path fill="#d8b4fe" d="M 40.226562 70.089844 L 33.011719 70.089844 C 32.863281 70.089844 32.714844 70.082031 32.566406 70.066406 C 30.480469 69.84375 28.90625 68.085938 28.90625 65.980469 L 28.90625 63.308594 C 28.90625 62.660156 29.429688 62.136719 30.078125 62.136719 C 30.722656 62.136719 31.25 62.660156 31.25 63.308594 L 31.25 65.980469 C 31.25 66.886719 31.925781 67.640625 32.820312 67.734375 C 32.886719 67.742188 32.949219 67.746094 33.011719 67.746094 L 40.226562 67.746094 C 40.289062 67.746094 40.355469 67.742188 40.414062 67.738281 C 41.3125 67.640625 41.988281 66.886719 41.988281 65.980469 L 41.988281 63.308594 C 41.988281 62.660156 42.515625 62.136719 43.160156 62.136719 C 43.808594 62.136719 44.332031 62.660156 44.332031 63.308594 L 44.332031 65.980469 C 44.332031 68.085938 42.757812 69.839844 40.667969 70.066406 C 40.527344 70.082031 40.375 70.089844 40.226562 70.089844 Z M 40.226562 70.089844 " fill-opacity="1" fill-rule="evenodd"/><path fill="#d8b4fe" d="M 36.6875 75.011719 L 36.550781 75.011719 C 33.777344 75.011719 31.523438 72.757812 31.523438 69.984375 L 31.523438 68.902344 C 31.523438 68.253906 32.046875 67.730469 32.695312 67.730469 C 33.34375 67.730469 33.867188 68.253906 33.867188 68.902344 L 33.867188 69.984375 C 33.867188 71.464844 35.070312 72.667969 36.550781 72.667969 L 36.6875 72.667969 C 38.167969 72.667969 39.371094 71.464844 39.371094 69.984375 L 39.371094 68.902344 C 39.371094 68.253906 39.894531 67.730469 40.542969 67.730469 C 41.191406 67.730469 41.714844 68.253906 41.714844 68.902344 L 41.714844 69.984375 C 41.714844 72.757812 39.460938 75.011719 36.6875 75.011719 Z M 36.6875 75.011719 " fill-opacity="1" fill-rule="evenodd"/><path fill="#d8b4fe" d="M 42.847656 64.5 L 30.390625 64.5 C 30.234375 64.5 30.082031 64.492188 29.929688 64.472656 C 28.472656 64.28125 27.273438 63.207031 26.9375 61.796875 C 26.902344 61.652344 26.863281 61.484375 26.824219 61.300781 C 26.589844 60.28125 25.964844 57.570312 25.363281 56.902344 C 22.867188 54.125 21.492188 50.535156 21.492188 46.792969 C 21.492188 43.980469 22.269531 41.234375 23.738281 38.855469 C 24.078125 38.304688 24.800781 38.132812 25.351562 38.472656 C 25.902344 38.8125 26.074219 39.535156 25.734375 40.085938 C 24.492188 42.097656 23.835938 44.417969 23.835938 46.792969 C 23.835938 49.953125 24.996094 52.988281 27.109375 55.335938 C 28.035156 56.367188 28.605469 58.589844 29.105469 60.777344 C 29.148438 60.953125 29.183594 61.113281 29.21875 61.253906 C 29.328125 61.722656 29.734375 62.082031 30.230469 62.148438 C 30.28125 62.152344 30.335938 62.15625 30.390625 62.15625 L 42.847656 62.15625 C 42.902344 62.15625 42.957031 62.152344 43.011719 62.148438 C 43.503906 62.082031 43.910156 61.722656 44.019531 61.253906 C 44.054688 61.113281 44.089844 60.953125 44.132812 60.777344 C 44.632812 58.589844 45.203125 56.367188 46.128906 55.335938 C 48.308594 52.914062 49.46875 49.785156 49.402344 46.523438 C 49.257812 39.515625 43.433594 33.902344 36.417969 34.011719 C 35.964844 34.015625 35.507812 34.046875 35.058594 34.101562 C 34.414062 34.179688 33.832031 33.722656 33.753906 33.082031 C 33.675781 32.4375 34.132812 31.855469 34.777344 31.777344 C 35.304688 31.710938 35.847656 31.675781 36.382812 31.667969 C 44.683594 31.539062 51.574219 38.183594 51.746094 46.476562 C 51.824219 50.335938 50.449219 54.039062 47.875 56.90625 C 47.273438 57.570312 46.648438 60.28125 46.414062 61.300781 C 46.375 61.484375 46.335938 61.652344 46.300781 61.796875 C 45.964844 63.207031 44.765625 64.28125 43.3125 64.472656 C 43.160156 64.492188 43.003906 64.5 42.847656 64.5 Z M 42.847656 64.5 " fill-opacity="1" fill-rule="evenodd"/><g clip-path="url(#1e15c0275c)"><path fill="#d8b4fe" d="M 46.644531 28.902344 C 46.519531 28.902344 46.390625 28.882812 46.265625 28.839844 C 45.792969 28.679688 45.472656 28.234375 45.472656 27.730469 L 45.472656 21.84375 L 43.074219 21.84375 C 41.710938 21.84375 40.597656 20.734375 40.597656 19.371094 L 40.597656 2.476562 C 40.597656 1.113281 41.710938 0.00390625 43.074219 0.00390625 L 67.171875 0.00390625 C 68.535156 0.00390625 69.644531 1.113281 69.644531 2.476562 L 69.644531 19.371094 C 69.644531 20.734375 68.535156 21.84375 67.171875 21.84375 L 52.6875 21.84375 L 47.570312 28.449219 C 47.34375 28.742188 47 28.902344 46.644531 28.902344 Z M 43.074219 2.347656 C 43 2.347656 42.941406 2.40625 42.941406 2.476562 L 42.941406 19.371094 C 42.941406 19.441406 43 19.5 43.074219 19.5 L 46.644531 19.5 C 47.292969 19.5 47.816406 20.023438 47.816406 20.671875 L 47.816406 24.304688 L 51.1875 19.953125 C 51.40625 19.667969 51.75 19.5 52.113281 19.5 L 67.171875 19.5 C 67.242188 19.5 67.300781 19.441406 67.300781 19.371094 L 67.300781 2.476562 C 67.300781 2.40625 67.242188 2.347656 67.171875 2.347656 Z M 43.074219 2.347656 " fill-opacity="1" fill-rule="evenodd"/></g><path fill="#d8b4fe" d="M 61.910156 9.3125 L 48.335938 9.3125 C 47.6875 9.3125 47.164062 8.785156 47.164062 8.140625 C 47.164062 7.492188 47.6875 6.96875 48.335938 6.96875 L 61.910156 6.96875 C 62.554688 6.96875 63.082031 7.492188 63.082031 8.140625 C 63.082031 8.785156 62.554688 9.3125 61.910156 9.3125 Z M 61.910156 9.3125 " fill-opacity="1" fill-rule="evenodd"/><path fill="#d8b4fe" d="M 61.910156 14.863281 L 48.335938 14.863281 C 47.6875 14.863281 47.164062 14.339844 47.164062 13.691406 C 47.164062 13.046875 47.6875 12.519531 48.335938 12.519531 L 61.910156 12.519531 C 62.554688 12.519531 63.082031 13.046875 63.082031 13.691406 C 63.082031 14.339844 62.554688 14.863281 61.910156 14.863281 Z M 61.910156 14.863281 " fill-opacity="1" fill-rule="evenodd"/><g clip-path="url(#a0f5c4cb9b)"><path fill="#d8b4fe" d="M 29.734375 47.027344 C 29.382812 47.027344 29.039062 46.867188 28.8125 46.578125 L 23.355469 39.605469 L 7.914062 39.605469 C 6.507812 39.605469 5.359375 38.460938 5.359375 37.050781 L 5.359375 19.09375 C 5.359375 17.683594 6.507812 16.535156 7.914062 16.535156 L 33.535156 16.535156 C 34.945312 16.535156 36.089844 17.683594 36.089844 19.09375 L 36.089844 37.050781 C 36.089844 38.460938 34.945312 39.605469 33.535156 39.605469 L 30.910156 39.605469 L 30.910156 45.855469 C 30.910156 46.351562 30.589844 46.796875 30.117188 46.960938 C 29.992188 47.003906 29.863281 47.027344 29.734375 47.027344 Z M 7.914062 18.878906 C 7.800781 18.878906 7.703125 18.976562 7.703125 19.09375 L 7.703125 37.050781 C 7.703125 37.167969 7.800781 37.261719 7.914062 37.261719 L 23.925781 37.261719 C 24.285156 37.261719 24.625 37.429688 24.847656 37.710938 L 28.5625 42.457031 L 28.5625 38.433594 C 28.5625 37.785156 29.089844 37.261719 29.734375 37.261719 L 33.535156 37.261719 C 33.652344 37.261719 33.746094 37.167969 33.746094 37.050781 L 33.746094 19.09375 C 33.746094 18.976562 33.652344 18.878906 33.535156 18.878906 Z M 7.914062 18.878906 " fill-opacity="1" fill-rule="evenodd"/></g><path fill="#d8b4fe" d="M 27.941406 26.28125 L 13.507812 26.28125 C 12.863281 26.28125 12.335938 25.757812 12.335938 25.109375 C 12.335938 24.464844 12.863281 23.9375 13.507812 23.9375 L 27.941406 23.9375 C 28.585938 23.9375 29.113281 24.464844 29.113281 25.109375 C 29.113281 25.757812 28.585938 26.28125 27.941406 26.28125 Z M 27.941406 26.28125 " fill-opacity="1" fill-rule="evenodd"/><path fill="#d8b4fe" d="M 27.941406 32.1875 L 13.507812 32.1875 C 12.863281 32.1875 12.335938 31.660156 12.335938 31.015625 C 12.335938 30.367188 12.863281 29.84375 13.507812 29.84375 L 27.941406 29.84375 C 28.585938 29.84375 29.113281 30.367188 29.113281 31.015625 C 29.113281 31.660156 28.585938 32.1875 27.941406 32.1875 Z M 27.941406 32.1875 " fill-opacity="1" fill-rule="evenodd"/></svg>