<svg xmlns="http://www.w3.org/2000/svg" xmlns:xlink="http://www.w3.org/1999/xlink" width="100" zoomAndPan="magnify" viewBox="0 0 75 74.999997" height="100" preserveAspectRatio="xMidYMid meet" version="1.0"><defs><clipPath id="f0a610f0e1"><path d="M 21 0.273438 L 55 0.273438 L 55 31 L 21 31 Z M 21 0.273438 " clip-rule="nonzero"/></clipPath></defs><path fill="#d8b4fe" d="M 74.160156 68.855469 L 68.332031 54.28125 C 68.171875 53.878906 67.953125 53.515625 67.699219 53.1875 C 68.464844 52.328125 68.945312 51.210938 68.945312 49.96875 L 68.945312 13.488281 C 68.945312 10.820312 66.765625 8.640625 64.097656 8.640625 L 53.9375 8.640625 L 50.339844 11.96875 L 64.097656 11.96875 C 64.933594 11.96875 65.617188 12.652344 65.617188 13.488281 L 65.617188 49.96875 C 65.617188 50.796875 64.945312 51.480469 64.121094 51.496094 L 10.605469 51.496094 C 9.773438 51.480469 9.101562 50.796875 9.101562 49.96875 L 9.101562 13.488281 C 9.101562 12.652344 9.785156 11.96875 10.632812 11.96875 L 36.929688 11.96875 L 40.015625 8.640625 L 10.632812 8.640625 C 7.953125 8.640625 5.773438 10.820312 5.773438 13.488281 L 5.773438 49.96875 C 5.773438 51.210938 6.253906 52.328125 7.023438 53.1875 C 6.765625 53.515625 6.546875 53.878906 6.386719 54.28125 L 0.558594 68.855469 C 0.0117188 70.222656 0.175781 71.765625 1.003906 72.984375 C 1.828125 74.203125 3.199219 74.933594 4.671875 74.933594 L 70.046875 74.933594 C 71.519531 74.933594 72.890625 74.203125 73.714844 72.984375 C 74.542969 71.765625 74.707031 70.222656 74.160156 68.855469 Z M 70.964844 71.121094 C 70.863281 71.265625 70.578125 71.609375 70.046875 71.609375 L 4.671875 71.609375 C 4.140625 71.609375 3.855469 71.265625 3.753906 71.121094 C 3.65625 70.976562 3.445312 70.582031 3.644531 70.089844 L 9.472656 55.515625 C 9.640625 55.09375 10.046875 54.820312 10.5 54.820312 L 64.21875 54.820312 C 64.671875 54.820312 65.078125 55.09375 65.246094 55.515625 L 71.074219 70.089844 C 71.273438 70.582031 71.0625 70.976562 70.964844 71.121094 Z M 70.964844 71.121094 " fill-opacity="1" fill-rule="nonzero"/><path fill="#d8b4fe" d="M 43.640625 62.277344 L 31.082031 62.277344 C 30.679688 62.277344 30.339844 62.5625 30.265625 62.953125 L 29.15625 68.773438 C 29.109375 69.015625 29.175781 69.265625 29.332031 69.457031 C 29.488281 69.648438 29.722656 69.757812 29.972656 69.757812 L 44.746094 69.757812 C 44.996094 69.757812 45.230469 69.648438 45.386719 69.457031 C 45.546875 69.265625 45.609375 69.015625 45.5625 68.773438 L 44.453125 62.953125 C 44.378906 62.5625 44.039062 62.277344 43.640625 62.277344 Z M 30.976562 68.097656 L 31.769531 63.941406 L 42.949219 63.941406 L 43.742188 68.097656 Z M 30.976562 68.097656 " fill-opacity="1" fill-rule="nonzero"/><path fill="#d8b4fe" d="M 50.851562 23.949219 C 49.816406 22.835938 48.414062 22.210938 46.894531 22.164062 C 45.398438 22.117188 43.949219 22.664062 42.847656 23.695312 C 41.746094 24.738281 41.105469 26.132812 41.058594 27.652344 C 41.046875 28.417969 40.886719 29.171875 40.605469 29.890625 C 40.492188 30.203125 40.269531 30.597656 40.085938 30.921875 C 39.875 31.246094 39.632812 31.617188 39.332031 31.929688 C 38.265625 33.195312 36.652344 34.089844 34.933594 34.378906 C 33.054688 34.679688 31.070312 34.308594 29.484375 33.371094 C 28.972656 33.078125 28.484375 32.730469 28.03125 32.324219 C 27.707031 32.359375 27.371094 32.371094 27.023438 32.382812 L 26.804688 32.394531 C 26.316406 32.394531 25.285156 32.347656 24.101562 32.023438 C 25.109375 33.613281 26.480469 34.914062 28.066406 35.816406 C 30.203125 37.058594 32.859375 37.558594 35.386719 37.164062 C 37.789062 36.757812 39.957031 35.550781 41.441406 33.8125 C 41.871094 33.347656 42.183594 32.859375 42.488281 32.382812 C 42.753906 31.929688 43.042969 31.410156 43.230469 30.898438 C 43.625 29.890625 43.84375 28.835938 43.878906 27.734375 C 43.902344 26.976562 44.214844 26.269531 44.773438 25.75 C 45.328125 25.238281 46.046875 24.960938 46.8125 24.984375 C 47.578125 24.996094 48.273438 25.320312 48.808594 25.875 C 49.320312 26.433594 49.597656 27.152344 49.574219 27.917969 C 49.5625 28.09375 49.550781 28.265625 49.503906 28.417969 L 49.457031 28.707031 C 49.074219 30.390625 48.4375 31.941406 47.53125 33.359375 C 47.070312 34.125 46.535156 34.75 46.058594 35.296875 C 45.421875 36.015625 44.851562 36.546875 44.261719 36.988281 C 41.824219 38.960938 38.625 40.074219 35.492188 40.027344 C 32.382812 39.96875 29.4375 38.902344 27.175781 37 C 25.503906 35.621094 24.238281 33.84375 23.507812 31.839844 C 22.464844 31.457031 21.386719 30.863281 20.527344 29.867188 C 20.355469 29.679688 20.214844 29.472656 20.109375 29.253906 C 20.027344 29.613281 20.039062 29.996094 20.109375 30.355469 C 20.792969 33.800781 22.664062 36.929688 25.375 39.160156 C 28.101562 41.464844 31.6875 42.777344 35.445312 42.847656 L 35.664062 42.847656 C 39.425781 42.847656 43.089844 41.558594 46.011719 39.203125 C 46.707031 38.671875 47.382812 38.042969 48.171875 37.175781 C 48.714844 36.546875 49.355469 35.78125 49.921875 34.867188 C 50.988281 33.183594 51.753906 31.316406 52.195312 29.320312 L 52.265625 29.03125 C 52.335938 28.695312 52.382812 28.347656 52.394531 28 C 52.4375 26.480469 51.894531 25.054688 50.851562 23.949219 Z M 50.851562 23.949219 " fill-opacity="1" fill-rule="nonzero"/><g clip-path="url(#f0a610f0e1)"><path fill="#d8b4fe" d="M 53.570312 1.601562 C 52.195312 0.324219 50.035156 0.402344 48.753906 1.78125 L 31.820312 20.039062 C 27.28125 20.121094 24.90625 23.578125 24.214844 25.625 C 24.078125 25.832031 23.765625 26.183594 23.035156 26.183594 C 23.027344 26.183594 23.019531 26.183594 23.011719 26.183594 C 22.386719 26.203125 21.863281 26.527344 21.609375 27.070312 C 21.355469 27.621094 21.445312 28.273438 21.839844 28.730469 C 23.382812 30.519531 26.046875 30.652344 26.804688 30.652344 C 26.886719 30.652344 26.949219 30.652344 26.980469 30.648438 C 29.746094 30.589844 31.910156 29.75 33.417969 28.152344 C 35.011719 26.46875 35.398438 24.410156 35.488281 23.371094 L 53.570312 6.597656 C 53.632812 6.542969 53.695312 6.480469 53.753906 6.417969 C 54.371094 5.75 54.695312 4.882812 54.660156 3.972656 C 54.625 3.0625 54.238281 2.21875 53.570312 1.601562 Z M 26.914062 28.210938 C 26.578125 28.222656 25.902344 28.179688 25.226562 27.992188 C 25.703125 27.679688 26.097656 27.253906 26.394531 26.730469 L 26.5 26.492188 C 26.546875 26.332031 27.652344 22.917969 31.292969 22.523438 C 31.398438 22.84375 31.566406 23.148438 31.808594 23.414062 C 32.109375 23.738281 32.488281 23.960938 32.898438 24.085938 C 32.722656 24.808594 32.371094 25.710938 31.644531 26.476562 C 30.601562 27.578125 29.015625 28.164062 26.914062 28.210938 Z M 51.914062 4.808594 L 34.269531 21.09375 L 34.21875 21.042969 L 50.542969 3.441406 C 50.734375 3.238281 50.996094 3.132812 51.253906 3.132812 C 51.488281 3.132812 51.726562 3.21875 51.914062 3.390625 C 52.101562 3.566406 52.210938 3.804688 52.21875 4.0625 C 52.230469 4.320312 52.140625 4.566406 51.914062 4.808594 Z M 51.914062 4.808594 " fill-opacity="1" fill-rule="nonzero"/></g></svg>