<svg xmlns="http://www.w3.org/2000/svg" xmlns:xlink="http://www.w3.org/1999/xlink" width="100" zoomAndPan="magnify" viewBox="0 0 75 74.999997" height="100" preserveAspectRatio="xMidYMid meet" version="1.0"><defs><clipPath id="6cefe24afb"><path d="M 45 57 L 69 57 L 69 73.519531 L 45 73.519531 Z M 45 57 " clip-rule="nonzero"/></clipPath><clipPath id="1575bb1503"><path d="M 31 1.519531 L 50 1.519531 L 50 19 L 31 19 Z M 31 1.519531 " clip-rule="nonzero"/></clipPath><clipPath id="a847ed263e"><path d="M 14 58 L 28 58 L 28 73.519531 L 14 73.519531 Z M 14 58 " clip-rule="nonzero"/></clipPath></defs><path fill="#d8b4fe" d="M 49.574219 8.738281 C 49.574219 9.152344 49.910156 9.488281 50.324219 9.488281 L 52.804688 9.488281 C 53.21875 9.488281 53.554688 9.152344 53.554688 8.738281 C 53.554688 8.320312 53.21875 7.984375 52.804688 7.984375 L 50.324219 7.984375 C 49.910156 7.984375 49.574219 8.320312 49.574219 8.738281 Z M 49.574219 8.738281 " fill-opacity="1" fill-rule="nonzero"/><path fill="#d8b4fe" d="M 50.078125 7.769531 C 50.234375 7.769531 50.394531 7.71875 50.53125 7.617188 L 52.503906 6.121094 C 52.835938 5.871094 52.902344 5.398438 52.652344 5.070312 C 52.398438 4.738281 51.929688 4.675781 51.597656 4.925781 L 49.625 6.421875 C 49.292969 6.671875 49.230469 7.140625 49.480469 7.472656 C 49.625 7.667969 49.851562 7.769531 50.078125 7.769531 Z M 50.078125 7.769531 " fill-opacity="1" fill-rule="nonzero"/><path fill="#d8b4fe" d="M 52.503906 11.351562 L 50.53125 9.855469 C 50.199219 9.605469 49.730469 9.667969 49.480469 10 C 49.230469 10.332031 49.292969 10.800781 49.625 11.050781 L 51.597656 12.546875 C 51.734375 12.652344 51.894531 12.699219 52.050781 12.699219 C 52.277344 12.699219 52.503906 12.597656 52.652344 12.402344 C 52.902344 12.074219 52.835938 11.601562 52.503906 11.351562 Z M 52.503906 11.351562 " fill-opacity="1" fill-rule="nonzero"/><path fill="#d8b4fe" d="M 74.246094 28.375 L 66.578125 28.375 C 66.535156 28.257812 66.488281 28.136719 66.441406 28.019531 L 65.511719 28.375 L 61.082031 28.375 C 60.667969 28.375 60.332031 28.710938 60.332031 29.125 L 60.332031 39.234375 C 60.332031 39.648438 60.667969 39.984375 61.082031 39.984375 L 64.117188 39.984375 L 64.117188 43.425781 C 64.117188 43.734375 64.308594 44.011719 64.59375 44.125 C 64.683594 44.15625 64.777344 44.175781 64.867188 44.175781 C 65.074219 44.175781 65.277344 44.089844 65.421875 43.933594 L 66.789062 42.449219 C 66.75 42.761719 66.710938 43.078125 66.664062 43.390625 L 68.148438 43.609375 C 68.214844 43.164062 68.273438 42.714844 68.320312 42.265625 L 67.074219 42.136719 L 67.941406 41.195312 L 68.40625 41.226562 C 68.421875 41.035156 68.433594 40.839844 68.441406 40.648438 L 69.050781 39.984375 L 74.246094 39.984375 C 74.664062 39.984375 75 39.648438 75 39.234375 L 75 29.125 C 75 28.710938 74.664062 28.375 74.246094 28.375 Z M 73.496094 38.484375 L 68.722656 38.484375 C 68.511719 38.484375 68.3125 38.574219 68.171875 38.726562 L 65.621094 41.5 L 65.621094 39.234375 C 65.621094 38.820312 65.28125 38.484375 64.867188 38.484375 L 61.832031 38.484375 L 61.832031 29.878906 L 73.496094 29.878906 Z M 73.496094 38.484375 " fill-opacity="1" fill-rule="nonzero"/><path fill="#d8b4fe" d="M 63.375 37.769531 C 63.765625 37.910156 64.195312 37.710938 64.335938 37.320312 L 64.652344 36.453125 L 66.457031 36.453125 L 66.773438 37.320312 C 66.882812 37.625 67.171875 37.816406 67.480469 37.816406 C 67.566406 37.816406 67.652344 37.800781 67.734375 37.769531 C 68.125 37.628906 68.328125 37.199219 68.183594 36.808594 L 68.140625 36.691406 C 68.484375 37.394531 69.207031 37.882812 70.039062 37.882812 C 70.382812 37.882812 70.707031 37.800781 70.992188 37.65625 C 71.121094 37.753906 71.28125 37.816406 71.457031 37.816406 C 71.875 37.816406 72.210938 37.480469 72.210938 37.066406 L 72.210938 31.765625 C 72.210938 31.351562 71.875 31.015625 71.457031 31.015625 C 71.042969 31.015625 70.707031 31.351562 70.707031 31.765625 L 70.707031 33.78125 C 70.496094 33.710938 70.273438 33.671875 70.039062 33.671875 C 68.878906 33.671875 67.933594 34.617188 67.933594 35.777344 C 67.933594 35.953125 67.957031 36.125 67.996094 36.292969 L 66.261719 31.507812 C 66.152344 31.210938 65.871094 31.015625 65.554688 31.015625 C 65.238281 31.015625 64.957031 31.210938 64.847656 31.507812 L 62.925781 36.808594 C 62.78125 37.199219 62.984375 37.628906 63.375 37.769531 Z M 70.039062 35.171875 C 70.375 35.171875 70.644531 35.445312 70.644531 35.777344 C 70.644531 36.109375 70.375 36.382812 70.039062 36.382812 C 69.707031 36.382812 69.4375 36.109375 69.4375 35.777344 C 69.433594 35.445312 69.707031 35.171875 70.039062 35.171875 Z M 65.554688 33.964844 L 65.914062 34.949219 L 65.195312 34.949219 Z M 65.554688 33.964844 " fill-opacity="1" fill-rule="nonzero"/><path fill="#d8b4fe" d="M 10.484375 35.625 L 6.339844 33.230469 C 6.105469 33.097656 5.820312 33.097656 5.589844 33.230469 C 5.355469 33.367188 5.214844 33.613281 5.214844 33.882812 L 5.214844 38.667969 C 5.214844 38.933594 5.355469 39.183594 5.589844 39.316406 C 5.703125 39.382812 5.835938 39.417969 5.964844 39.417969 C 6.09375 39.417969 6.222656 39.382812 6.339844 39.316406 L 10.484375 36.925781 C 10.714844 36.789062 10.859375 36.542969 10.859375 36.273438 C 10.859375 36.007812 10.714844 35.757812 10.484375 35.625 Z M 6.714844 37.367188 L 6.714844 35.183594 L 8.605469 36.273438 Z M 6.714844 37.367188 " fill-opacity="1" fill-rule="nonzero"/><path fill="#d8b4fe" d="M 11.519531 31.097656 L 12.824219 31.097656 L 12.824219 32.265625 L 11.519531 32.265625 Z M 11.519531 31.097656 " fill-opacity="1" fill-rule="nonzero"/><path fill="#d8b4fe" d="M 2.269531 31.097656 L 3.578125 31.097656 L 3.578125 32.265625 L 2.269531 32.265625 Z M 2.269531 31.097656 " fill-opacity="1" fill-rule="nonzero"/><path fill="#d8b4fe" d="M 4.582031 31.097656 L 5.890625 31.097656 L 5.890625 32.265625 L 4.582031 32.265625 Z M 4.582031 31.097656 " fill-opacity="1" fill-rule="nonzero"/><path fill="#d8b4fe" d="M 9.207031 31.097656 L 10.511719 31.097656 L 10.511719 32.265625 L 9.207031 32.265625 Z M 9.207031 31.097656 " fill-opacity="1" fill-rule="nonzero"/><path fill="#d8b4fe" d="M 6.894531 31.097656 L 8.203125 31.097656 L 8.203125 32.265625 L 6.894531 32.265625 Z M 6.894531 31.097656 " fill-opacity="1" fill-rule="nonzero"/><path fill="#d8b4fe" d="M 6.894531 40.363281 L 8.203125 40.363281 L 8.203125 41.53125 L 6.894531 41.53125 Z M 6.894531 40.363281 " fill-opacity="1" fill-rule="nonzero"/><path fill="#d8b4fe" d="M 11.519531 40.363281 L 12.824219 40.363281 L 12.824219 41.53125 L 11.519531 41.53125 Z M 11.519531 40.363281 " fill-opacity="1" fill-rule="nonzero"/><path fill="#d8b4fe" d="M 4.582031 40.363281 L 5.890625 40.363281 L 5.890625 41.53125 L 4.582031 41.53125 Z M 4.582031 40.363281 " fill-opacity="1" fill-rule="nonzero"/><path fill="#d8b4fe" d="M 9.207031 40.363281 L 10.511719 40.363281 L 10.511719 41.53125 L 9.207031 41.53125 Z M 9.207031 40.363281 " fill-opacity="1" fill-rule="nonzero"/><path fill="#d8b4fe" d="M 2.269531 40.363281 L 3.578125 40.363281 L 3.578125 41.53125 L 2.269531 41.53125 Z M 2.269531 40.363281 " fill-opacity="1" fill-rule="nonzero"/><path fill="#d8b4fe" d="M 17.175781 63.871094 C 17.175781 64.238281 17.472656 64.535156 17.839844 64.535156 L 24.183594 64.535156 C 24.550781 64.535156 24.847656 64.238281 24.847656 63.871094 C 24.847656 63.503906 24.550781 63.207031 24.183594 63.207031 L 17.839844 63.207031 C 17.472656 63.207031 17.175781 63.503906 17.175781 63.871094 Z M 17.175781 63.871094 " fill-opacity="1" fill-rule="nonzero"/><path fill="#d8b4fe" d="M 24.183594 65.457031 L 17.839844 65.457031 C 17.472656 65.457031 17.175781 65.753906 17.175781 66.121094 C 17.175781 66.488281 17.472656 66.785156 17.839844 66.785156 L 24.183594 66.785156 C 24.550781 66.785156 24.847656 66.488281 24.847656 66.121094 C 24.847656 65.753906 24.550781 65.457031 24.183594 65.457031 Z M 24.183594 65.457031 " fill-opacity="1" fill-rule="nonzero"/><path fill="#d8b4fe" d="M 24.183594 67.707031 L 17.839844 67.707031 C 17.472656 67.707031 17.175781 68.003906 17.175781 68.371094 C 17.175781 68.734375 17.472656 69.03125 17.839844 69.03125 L 24.183594 69.03125 C 24.550781 69.03125 24.847656 68.734375 24.847656 68.371094 C 24.847656 68.003906 24.550781 67.707031 24.183594 67.707031 Z M 24.183594 67.707031 " fill-opacity="1" fill-rule="nonzero"/><path fill="#d8b4fe" d="M 24.183594 69.957031 L 17.839844 69.957031 C 17.472656 69.957031 17.175781 70.253906 17.175781 70.617188 C 17.175781 70.984375 17.472656 71.28125 17.839844 71.28125 L 24.183594 71.28125 C 24.550781 71.28125 24.847656 70.984375 24.847656 70.617188 C 24.847656 70.253906 24.550781 69.957031 24.183594 69.957031 Z M 24.183594 69.957031 " fill-opacity="1" fill-rule="nonzero"/><g clip-path="url(#6cefe24afb)"><path fill="#d8b4fe" d="M 68.515625 61.523438 L 66.058594 60.464844 L 66.820312 57.898438 C 66.894531 57.648438 66.8125 57.378906 66.617188 57.207031 C 66.417969 57.035156 66.140625 57 65.902344 57.109375 L 61.976562 58.949219 C 61.804688 59.027344 61.675781 59.179688 61.621094 59.359375 L 60.777344 62.203125 L 59.671875 62.722656 C 59.417969 62.289062 59.121094 61.882812 58.777344 61.511719 C 58.867188 61.425781 58.957031 61.339844 59.046875 61.253906 L 58.003906 60.171875 C 57.886719 60.285156 57.769531 60.398438 57.652344 60.507812 C 57.222656 60.203125 56.765625 59.945312 56.277344 59.738281 C 55.394531 59.367188 54.460938 59.175781 53.496094 59.175781 C 52.53125 59.175781 51.59375 59.367188 50.710938 59.738281 C 49.859375 60.097656 49.097656 60.613281 48.441406 61.269531 C 47.785156 61.925781 47.269531 62.691406 46.910156 63.542969 C 46.535156 64.425781 46.347656 65.359375 46.347656 66.324219 C 46.347656 66.570312 46.359375 66.8125 46.382812 67.054688 C 46.234375 67.101562 46.082031 67.148438 45.933594 67.191406 L 46.355469 68.632812 C 46.46875 68.601562 46.582031 68.566406 46.691406 68.53125 C 46.757812 68.726562 46.828125 68.917969 46.910156 69.109375 C 47.269531 69.960938 47.785156 70.722656 48.441406 71.378906 C 49.097656 72.035156 49.859375 72.550781 50.710938 72.914062 C 51.59375 73.285156 52.53125 73.472656 53.496094 73.472656 C 54.460938 73.472656 55.394531 73.285156 56.277344 72.914062 C 57.128906 72.550781 57.894531 72.035156 58.550781 71.378906 C 59.207031 70.722656 59.722656 69.960938 60.082031 69.109375 C 60.453125 68.226562 60.644531 67.289062 60.644531 66.324219 C 60.644531 65.5 60.503906 64.691406 60.230469 63.925781 L 61.339844 63.40625 L 64.066406 64.582031 C 64.148438 64.617188 64.238281 64.632812 64.328125 64.632812 C 64.421875 64.632812 64.519531 64.613281 64.609375 64.570312 L 68.535156 62.734375 C 68.773438 62.625 68.921875 62.382812 68.917969 62.121094 C 68.914062 61.863281 68.757812 61.628906 68.515625 61.523438 Z M 57.613281 70.441406 C 56.511719 71.542969 55.050781 72.148438 53.496094 72.148438 C 51.941406 72.148438 50.476562 71.542969 49.378906 70.441406 C 48.277344 69.34375 47.671875 67.882812 47.671875 66.324219 C 47.671875 64.769531 48.277344 63.308594 49.378906 62.207031 C 50.476562 61.109375 51.941406 60.503906 53.496094 60.503906 C 55.050781 60.503906 56.511719 61.109375 57.613281 62.207031 C 57.941406 62.539062 58.226562 62.898438 58.464844 63.289062 L 57.507812 63.734375 C 57.324219 63.453125 57.113281 63.191406 56.871094 62.949219 C 55.96875 62.046875 54.769531 61.550781 53.496094 61.550781 C 52.21875 61.550781 51.019531 62.046875 50.117188 62.949219 C 49.21875 63.851562 48.71875 65.050781 48.71875 66.324219 C 48.71875 67.601562 49.21875 68.800781 50.117188 69.703125 C 51.019531 70.605469 52.21875 71.101562 53.496094 71.101562 C 54.769531 71.101562 55.96875 70.605469 56.871094 69.703125 C 57.773438 68.800781 58.269531 67.601562 58.269531 66.324219 C 58.269531 65.847656 58.199219 65.382812 58.066406 64.9375 L 59.023438 64.488281 C 59.21875 65.074219 59.316406 65.691406 59.316406 66.324219 C 59.316406 67.882812 58.710938 69.34375 57.613281 70.441406 Z M 52.945312 66.601562 C 53.058594 66.84375 53.296875 66.984375 53.546875 66.984375 C 53.640625 66.984375 53.734375 66.964844 53.828125 66.921875 L 54.535156 66.589844 C 54.417969 67.054688 53.996094 67.398438 53.496094 67.398438 C 52.902344 67.398438 52.421875 66.917969 52.421875 66.324219 C 52.421875 65.734375 52.902344 65.25 53.496094 65.25 C 53.675781 65.25 53.847656 65.296875 54 65.378906 L 53.265625 65.722656 C 52.933594 65.875 52.789062 66.269531 52.945312 66.601562 Z M 53.496094 63.925781 C 52.171875 63.925781 51.09375 65.003906 51.09375 66.324219 C 51.09375 67.648438 52.171875 68.726562 53.496094 68.726562 C 54.820312 68.726562 55.894531 67.648438 55.894531 66.324219 C 55.894531 66.203125 55.886719 66.085938 55.867188 65.964844 L 56.847656 65.507812 C 56.910156 65.769531 56.945312 66.042969 56.945312 66.324219 C 56.945312 68.226562 55.398438 69.773438 53.496094 69.773438 C 51.59375 69.773438 50.046875 68.226562 50.046875 66.324219 C 50.046875 64.425781 51.59375 62.878906 53.496094 62.878906 C 54.644531 62.878906 55.660156 63.441406 56.289062 64.304688 L 55.316406 64.761719 C 54.875 64.25 54.222656 63.925781 53.496094 63.925781 Z M 62.808594 60.023438 L 65.128906 58.9375 L 64.703125 60.367188 L 62.382812 61.453125 Z M 64.316406 63.246094 L 62.945312 62.652344 L 65.265625 61.566406 L 66.636719 62.160156 Z M 64.316406 63.246094 " fill-opacity="1" fill-rule="nonzero"/></g><path fill="#d8b4fe" d="M 46.585938 56.257812 C 46.585938 55.820312 46.230469 55.464844 45.796875 55.464844 L 42.273438 55.464844 L 42.273438 52.210938 L 54.699219 52.210938 C 55.136719 52.210938 55.492188 51.855469 55.492188 51.417969 L 55.492188 26.445312 C 55.492188 26.007812 55.136719 25.652344 54.699219 25.652344 L 21.15625 25.652344 C 20.71875 25.652344 20.363281 26.007812 20.363281 26.445312 L 20.363281 51.417969 C 20.363281 51.855469 20.71875 52.210938 21.15625 52.210938 L 33.578125 52.210938 L 33.578125 55.464844 L 30.058594 55.464844 C 29.621094 55.464844 29.269531 55.820312 29.269531 56.257812 C 29.269531 56.695312 29.621094 57.050781 30.058594 57.050781 L 45.796875 57.050781 C 46.234375 57.050781 46.585938 56.695312 46.585938 56.257812 Z M 21.949219 27.238281 L 53.90625 27.238281 L 53.90625 45.992188 L 21.949219 45.992188 Z M 40.691406 55.464844 L 35.164062 55.464844 L 35.164062 52.210938 L 40.691406 52.210938 Z M 41.484375 50.59375 L 34.371094 50.59375 C 34.296875 50.59375 34.222656 50.605469 34.152344 50.625 L 21.949219 50.625 L 21.949219 47.574219 L 53.90625 47.574219 L 53.90625 50.625 L 41.703125 50.625 C 41.632812 50.605469 41.558594 50.59375 41.484375 50.59375 Z M 41.484375 50.59375 " fill-opacity="1" fill-rule="nonzero"/><path fill="#d8b4fe" d="M 13.238281 22.878906 L 11.988281 22.046875 C 11.75 22.40625 11.515625 22.773438 11.292969 23.140625 L 12.578125 23.917969 C 12.789062 23.570312 13.011719 23.21875 13.238281 22.878906 Z M 13.238281 22.878906 " fill-opacity="1" fill-rule="nonzero"/><path fill="#d8b4fe" d="M 17.4375 17.867188 L 16.398438 16.78125 C 16.085938 17.078125 15.777344 17.386719 15.480469 17.695312 L 16.5625 18.738281 C 16.84375 18.445312 17.140625 18.152344 17.4375 17.867188 Z M 17.4375 17.867188 " fill-opacity="1" fill-rule="nonzero"/><path fill="#d8b4fe" d="M 19.066406 16.421875 L 18.113281 15.261719 C 17.78125 15.535156 17.449219 15.816406 17.128906 16.105469 L 18.132812 17.222656 C 18.4375 16.949219 18.75 16.679688 19.066406 16.421875 Z M 19.066406 16.421875 " fill-opacity="1" fill-rule="nonzero"/><path fill="#d8b4fe" d="M 11.105469 26.679688 L 9.742188 26.046875 C 9.5625 26.4375 9.386719 26.835938 9.21875 27.230469 L 10.605469 27.808594 C 10.761719 27.433594 10.929688 27.050781 11.105469 26.679688 Z M 11.105469 26.679688 " fill-opacity="1" fill-rule="nonzero"/><path fill="#d8b4fe" d="M 15.914062 19.433594 L 14.800781 18.425781 C 14.511719 18.746094 14.226562 19.074219 13.953125 19.40625 L 15.105469 20.363281 C 15.367188 20.050781 15.640625 19.734375 15.914062 19.433594 Z M 15.914062 19.433594 " fill-opacity="1" fill-rule="nonzero"/><path fill="#d8b4fe" d="M 12.101562 24.738281 L 10.792969 24.003906 C 10.582031 24.378906 10.375 24.765625 10.179688 25.148438 L 11.519531 25.828125 C 11.703125 25.460938 11.902344 25.097656 12.101562 24.738281 Z M 12.101562 24.738281 " fill-opacity="1" fill-rule="nonzero"/><path fill="#d8b4fe" d="M 26.523438 11.953125 L 25.949219 10.566406 C 25.554688 10.730469 25.152344 10.902344 24.761719 11.082031 L 25.394531 12.445312 C 25.765625 12.273438 26.144531 12.109375 26.523438 11.953125 Z M 26.523438 11.953125 " fill-opacity="1" fill-rule="nonzero"/><path fill="#d8b4fe" d="M 30.660156 10.601562 L 30.304688 9.144531 C 29.886719 9.246094 29.464844 9.359375 29.050781 9.480469 L 29.472656 10.921875 C 29.863281 10.808594 30.265625 10.699219 30.660156 10.601562 Z M 30.660156 10.601562 " fill-opacity="1" fill-rule="nonzero"/><path fill="#d8b4fe" d="M 24.539062 12.859375 L 23.867188 11.515625 C 23.480469 11.710938 23.097656 11.914062 22.71875 12.121094 L 23.449219 13.433594 C 23.808594 13.234375 24.175781 13.042969 24.539062 12.859375 Z M 24.539062 12.859375 " fill-opacity="1" fill-rule="nonzero"/><path fill="#d8b4fe" d="M 14.511719 21.105469 L 13.328125 20.183594 C 13.0625 20.523438 12.800781 20.875 12.554688 21.222656 L 13.777344 22.09375 C 14.015625 21.761719 14.261719 21.429688 14.511719 21.105469 Z M 14.511719 21.105469 " fill-opacity="1" fill-rule="nonzero"/><path fill="#d8b4fe" d="M 28.566406 11.199219 L 28.101562 9.773438 C 27.691406 9.90625 27.28125 10.050781 26.878906 10.199219 L 27.402344 11.609375 C 27.789062 11.464844 28.179688 11.328125 28.566406 11.199219 Z M 28.566406 11.199219 " fill-opacity="1" fill-rule="nonzero"/><path fill="#d8b4fe" d="M 20.800781 15.097656 L 19.9375 13.871094 C 19.585938 14.117188 19.234375 14.378906 18.894531 14.640625 L 19.808594 15.828125 C 20.132812 15.582031 20.46875 15.335938 20.800781 15.097656 Z M 20.800781 15.097656 " fill-opacity="1" fill-rule="nonzero"/><path fill="#d8b4fe" d="M 22.628906 13.910156 L 21.859375 12.621094 C 21.488281 12.839844 21.121094 13.074219 20.761719 13.308594 L 21.585938 14.5625 C 21.929688 14.339844 22.277344 14.117188 22.628906 13.910156 Z M 22.628906 13.910156 " fill-opacity="1" fill-rule="nonzero"/><g clip-path="url(#1575bb1503)"><path fill="#d8b4fe" d="M 31.765625 10.351562 C 32.269531 11.453125 33.339844 12.242188 34.597656 12.34375 L 34.597656 16.804688 C 34.597656 17.8125 35.417969 18.632812 36.425781 18.632812 L 36.605469 18.632812 C 37.613281 18.632812 38.433594 17.8125 38.433594 16.804688 L 38.433594 12.351562 L 39.792969 12.351562 C 39.820312 12.359375 39.847656 12.367188 39.878906 12.375 C 42.046875 12.800781 44.0625 13.8125 45.703125 15.296875 L 46.574219 16.089844 C 46.71875 16.21875 46.898438 16.285156 47.082031 16.285156 C 47.183594 16.285156 47.285156 16.261719 47.382812 16.21875 C 47.65625 16.097656 47.832031 15.832031 47.832031 15.53125 L 47.832031 11.097656 C 48.722656 10.785156 49.359375 9.9375 49.359375 8.941406 C 49.359375 7.949219 48.722656 7.097656 47.832031 6.785156 L 47.832031 2.328125 C 47.832031 2.03125 47.65625 1.761719 47.382812 1.640625 C 47.113281 1.523438 46.796875 1.574219 46.574219 1.773438 L 45.703125 2.566406 C 44.0625 4.050781 42.046875 5.0625 39.878906 5.488281 C 39.820312 5.5 39.769531 5.515625 39.71875 5.535156 L 34.871094 5.535156 C 33.011719 5.535156 31.496094 7.03125 31.460938 8.882812 C 31.402344 8.894531 31.34375 8.90625 31.285156 8.917969 L 31.59375 10.390625 C 31.652344 10.375 31.710938 10.363281 31.765625 10.351562 Z M 47.828125 8.832031 C 47.832031 8.804688 47.832031 8.773438 47.832031 8.742188 L 47.832031 8.125 C 48.054688 8.328125 48.191406 8.621094 48.191406 8.941406 C 48.191406 9.265625 48.054688 9.554688 47.832031 9.757812 L 47.832031 9.121094 C 47.832031 9.089844 47.832031 9.058594 47.828125 9.027344 Z M 40.777344 9.121094 L 40.777344 6.828125 C 42.820312 6.328125 44.71875 5.363281 46.328125 4.011719 L 46.332031 8.652344 C 46.328125 8.679688 46.324219 8.710938 46.324219 8.742188 L 46.324219 9.121094 C 46.324219 9.152344 46.328125 9.179688 46.332031 9.210938 L 46.328125 13.851562 C 44.71875 12.5 42.820312 11.535156 40.777344 11.035156 Z M 36.929688 16.804688 C 36.929688 16.984375 36.785156 17.128906 36.605469 17.128906 L 36.425781 17.128906 C 36.246094 17.128906 36.101562 16.984375 36.101562 16.804688 L 36.101562 12.359375 L 36.929688 12.359375 Z M 34.871094 7.039062 L 39.269531 7.039062 L 39.269531 8.742188 C 39.269531 8.765625 39.273438 8.789062 39.273438 8.8125 L 39.273438 9.050781 C 39.273438 9.074219 39.269531 9.097656 39.269531 9.121094 L 39.269531 10.851562 L 34.871094 10.851562 C 33.820312 10.851562 32.964844 9.996094 32.964844 8.945312 C 32.964844 7.894531 33.820312 7.039062 34.871094 7.039062 Z M 34.871094 7.039062 " fill-opacity="1" fill-rule="nonzero"/></g><path fill="#d8b4fe" d="M 9.011719 45.207031 L 7.542969 45.519531 C 7.632812 45.945312 7.734375 46.375 7.84375 46.796875 L 9.296875 46.421875 C 9.195312 46.019531 9.097656 45.609375 9.011719 45.207031 Z M 9.011719 45.207031 " fill-opacity="1" fill-rule="nonzero"/><path fill="#d8b4fe" d="M 11.117188 51.472656 L 9.753906 52.109375 C 9.941406 52.503906 10.136719 52.898438 10.335938 53.285156 L 11.667969 52.589844 C 11.476562 52.222656 11.292969 51.847656 11.117188 51.472656 Z M 11.117188 51.472656 " fill-opacity="1" fill-rule="nonzero"/><path fill="#d8b4fe" d="M 9.554688 47.347656 L 8.113281 47.769531 C 8.234375 48.1875 8.371094 48.609375 8.511719 49.019531 L 9.929688 48.535156 C 9.796875 48.144531 9.671875 47.742188 9.554688 47.347656 Z M 9.554688 47.347656 " fill-opacity="1" fill-rule="nonzero"/><path fill="#d8b4fe" d="M 10.257812 49.4375 L 8.851562 49.96875 C 9.007812 50.378906 9.171875 50.789062 9.34375 51.1875 L 10.722656 50.597656 C 10.558594 50.214844 10.402344 49.824219 10.257812 49.4375 Z M 10.257812 49.4375 " fill-opacity="1" fill-rule="nonzero"/><path fill="#d8b4fe" d="M 13.28125 55.316406 L 12.035156 56.152344 C 12.277344 56.511719 12.527344 56.875 12.785156 57.226562 L 14 56.339844 C 13.753906 56.003906 13.511719 55.660156 13.28125 55.316406 Z M 13.28125 55.316406 " fill-opacity="1" fill-rule="nonzero"/><path fill="#d8b4fe" d="M 14.578125 57.105469 L 13.394531 58.03125 C 13.664062 58.375 13.941406 58.714844 14.226562 59.046875 L 15.367188 58.074219 C 15.097656 57.757812 14.832031 57.433594 14.578125 57.105469 Z M 14.578125 57.105469 " fill-opacity="1" fill-rule="nonzero"/><path fill="#d8b4fe" d="M 12.125 53.4375 L 10.820312 54.171875 C 11.03125 54.550781 11.257812 54.933594 11.488281 55.300781 L 12.761719 54.507812 C 12.542969 54.15625 12.332031 53.796875 12.125 53.4375 Z M 12.125 53.4375 " fill-opacity="1" fill-rule="nonzero"/><path fill="#d8b4fe" d="M 8.773438 43.960938 L 12.882812 43.960938 C 14.253906 43.960938 15.371094 42.84375 15.371094 41.472656 L 15.371094 31.078125 C 15.371094 29.707031 14.253906 28.589844 12.882812 28.589844 L 9.988281 28.589844 L 8.851562 28.160156 C 8.796875 28.300781 8.746094 28.445312 8.691406 28.589844 L 2.488281 28.589844 C 1.117188 28.589844 0 29.707031 0 31.078125 L 0 41.472656 C 0 42.84375 1.117188 43.960938 2.488281 43.960938 L 7.253906 43.960938 C 7.28125 44.148438 7.316406 44.339844 7.347656 44.527344 L 8.828125 44.261719 C 8.808594 44.160156 8.792969 44.0625 8.773438 43.960938 Z M 2.488281 42.457031 C 1.945312 42.457031 1.5 42.015625 1.5 41.472656 L 1.5 31.078125 C 1.5 30.535156 1.945312 30.089844 2.488281 30.089844 L 12.882812 30.089844 C 13.425781 30.089844 13.867188 30.535156 13.867188 31.078125 L 13.867188 31.097656 L 13.832031 31.097656 L 13.832031 32.265625 L 13.867188 32.265625 L 13.867188 40.363281 L 13.832031 40.363281 L 13.832031 41.53125 L 13.867188 41.53125 C 13.835938 42.046875 13.40625 42.457031 12.882812 42.457031 Z M 2.488281 42.457031 " fill-opacity="1" fill-rule="nonzero"/><path fill="#d8b4fe" d="M 37.675781 68.371094 C 37.492188 68.371094 37.3125 68.371094 37.132812 68.367188 L 37.105469 69.867188 C 37.292969 69.871094 37.484375 69.875 37.675781 69.875 C 37.925781 69.875 38.179688 69.871094 38.429688 69.863281 L 38.390625 68.363281 C 38.15625 68.367188 37.914062 68.371094 37.675781 68.371094 Z M 37.675781 68.371094 " fill-opacity="1" fill-rule="nonzero"/><path fill="#d8b4fe" d="M 43.773438 67.734375 L 44.085938 69.203125 C 44.515625 69.113281 44.949219 69.011719 45.375 68.902344 L 45 67.449219 C 44.59375 67.550781 44.183594 67.648438 43.773438 67.734375 Z M 43.773438 67.734375 " fill-opacity="1" fill-rule="nonzero"/><path fill="#d8b4fe" d="M 41.578125 68.113281 L 41.777344 69.601562 C 42.210938 69.542969 42.652344 69.476562 43.085938 69.398438 L 42.824219 67.921875 C 42.410156 67.992188 41.992188 68.058594 41.578125 68.113281 Z M 41.578125 68.113281 " fill-opacity="1" fill-rule="nonzero"/><path fill="#d8b4fe" d="M 32.445312 69.429688 C 32.875 69.503906 33.316406 69.570312 33.753906 69.625 L 33.941406 68.136719 C 33.527344 68.082031 33.109375 68.019531 32.699219 67.949219 Z M 32.445312 69.429688 " fill-opacity="1" fill-rule="nonzero"/><path fill="#d8b4fe" d="M 34.765625 69.738281 C 35.203125 69.777344 35.648438 69.808594 36.085938 69.832031 L 36.164062 68.332031 C 35.746094 68.3125 35.324219 68.28125 34.90625 68.242188 Z M 34.765625 69.738281 " fill-opacity="1" fill-rule="nonzero"/><path fill="#d8b4fe" d="M 30.152344 68.949219 C 30.578125 69.054688 31.011719 69.152344 31.441406 69.242188 L 31.746094 67.769531 C 31.335938 67.6875 30.921875 67.59375 30.515625 67.492188 Z M 30.152344 68.949219 " fill-opacity="1" fill-rule="nonzero"/><path fill="#d8b4fe" d="M 39.359375 68.324219 L 39.445312 69.824219 C 39.882812 69.796875 40.328125 69.761719 40.765625 69.71875 L 40.617188 68.226562 C 40.199219 68.265625 39.777344 68.300781 39.359375 68.324219 Z M 39.359375 68.324219 " fill-opacity="1" fill-rule="nonzero"/><path fill="#d8b4fe" d="M 27.902344 68.292969 C 28.320312 68.429688 28.746094 68.5625 29.167969 68.683594 L 29.582031 67.238281 C 29.179688 67.125 28.777344 67 28.378906 66.867188 Z M 27.902344 68.292969 " fill-opacity="1" fill-rule="nonzero"/><g clip-path="url(#a847ed263e)"><path fill="#d8b4fe" d="M 27.109375 62.226562 C 27.109375 62.050781 27.042969 61.882812 26.917969 61.757812 L 23.859375 58.699219 C 23.847656 58.691406 23.839844 58.679688 23.828125 58.671875 C 23.824219 58.667969 23.824219 58.667969 23.820312 58.664062 C 23.808594 58.65625 23.800781 58.648438 23.789062 58.640625 C 23.789062 58.636719 23.785156 58.636719 23.785156 58.636719 C 23.773438 58.628906 23.761719 58.621094 23.75 58.613281 C 23.746094 58.609375 23.742188 58.609375 23.738281 58.605469 C 23.730469 58.597656 23.71875 58.59375 23.707031 58.585938 C 23.707031 58.585938 23.703125 58.585938 23.703125 58.582031 C 23.691406 58.578125 23.679688 58.570312 23.664062 58.566406 C 23.660156 58.5625 23.65625 58.5625 23.652344 58.558594 C 23.640625 58.554688 23.628906 58.550781 23.617188 58.546875 C 23.617188 58.546875 23.617188 58.542969 23.613281 58.542969 C 23.601562 58.539062 23.585938 58.535156 23.574219 58.53125 C 23.570312 58.53125 23.566406 58.53125 23.5625 58.527344 C 23.550781 58.523438 23.539062 58.523438 23.523438 58.519531 C 23.507812 58.515625 23.492188 58.511719 23.480469 58.511719 C 23.476562 58.511719 23.472656 58.511719 23.46875 58.511719 C 23.457031 58.507812 23.445312 58.507812 23.429688 58.507812 C 23.429688 58.507812 23.425781 58.507812 23.425781 58.507812 C 23.414062 58.503906 23.402344 58.503906 23.390625 58.503906 L 15.574219 58.503906 C 15.207031 58.503906 14.910156 58.800781 14.910156 59.167969 L 14.910156 59.789062 L 14.890625 59.804688 C 14.898438 59.8125 14.90625 59.820312 14.910156 59.824219 L 14.910156 72.804688 C 14.910156 73.171875 15.207031 73.46875 15.574219 73.46875 L 26.449219 73.46875 C 26.8125 73.46875 27.109375 73.171875 27.109375 72.804688 L 27.109375 67.5 L 27.464844 66.542969 C 27.347656 66.5 27.230469 66.457031 27.109375 66.410156 Z M 24.054688 60.78125 L 24.695312 61.429688 L 24.054688 61.429688 Z M 25.785156 72.140625 L 16.238281 72.140625 L 16.238281 59.832031 L 22.726562 59.832031 L 22.726562 62.09375 C 22.726562 62.460938 23.023438 62.757812 23.390625 62.757812 L 25.785156 62.757812 Z M 25.785156 72.140625 " fill-opacity="1" fill-rule="nonzero"/></g><path fill="#d8b4fe" d="M 64.882812 49.976562 L 66.277344 50.535156 C 66.441406 50.121094 66.605469 49.691406 66.753906 49.269531 L 65.335938 48.769531 C 65.195312 49.175781 65.042969 49.582031 64.882812 49.976562 Z M 64.882812 49.976562 " fill-opacity="1" fill-rule="nonzero"/><path fill="#d8b4fe" d="M 62.859375 54.058594 L 64.148438 54.828125 C 64.378906 54.441406 64.605469 54.046875 64.816406 53.648438 L 63.496094 52.9375 C 63.292969 53.3125 63.078125 53.691406 62.859375 54.058594 Z M 62.859375 54.058594 " fill-opacity="1" fill-rule="nonzero"/><path fill="#d8b4fe" d="M 63.949219 52.058594 L 65.296875 52.722656 C 65.496094 52.320312 65.691406 51.910156 65.871094 51.496094 L 64.496094 50.890625 C 64.324219 51.28125 64.140625 51.675781 63.949219 52.058594 Z M 63.949219 52.058594 " fill-opacity="1" fill-rule="nonzero"/><path fill="#d8b4fe" d="M 65.648438 47.832031 L 67.082031 48.277344 C 67.214844 47.851562 67.339844 47.410156 67.457031 46.976562 L 66.003906 46.59375 C 65.894531 47.007812 65.773438 47.421875 65.648438 47.832031 Z M 65.648438 47.832031 " fill-opacity="1" fill-rule="nonzero"/><path fill="#d8b4fe" d="M 67.980469 44.636719 L 66.503906 44.367188 C 66.425781 44.789062 66.339844 45.214844 66.242188 45.628906 L 67.707031 45.964844 C 67.808594 45.527344 67.898438 45.082031 67.980469 44.636719 Z M 67.980469 44.636719 " fill-opacity="1" fill-rule="nonzero"/><path fill="#d8b4fe" d="M 61.617188 55.96875 L 62.84375 56.835938 C 63.101562 56.46875 63.355469 56.09375 63.601562 55.714844 L 62.335938 54.902344 C 62.105469 55.261719 61.863281 55.621094 61.617188 55.96875 Z M 61.617188 55.96875 " fill-opacity="1" fill-rule="nonzero"/><path fill="#d8b4fe" d="M 60.230469 57.777344 L 61.382812 58.738281 C 61.671875 58.390625 61.957031 58.035156 62.226562 57.675781 L 61.03125 56.769531 C 60.773438 57.109375 60.503906 57.449219 60.230469 57.777344 Z M 60.230469 57.777344 " fill-opacity="1" fill-rule="nonzero"/><path fill="#d8b4fe" d="M 58.707031 59.472656 L 59.785156 60.519531 C 60.097656 60.199219 60.40625 59.863281 60.707031 59.527344 L 59.582031 58.53125 C 59.296875 58.847656 59.003906 59.167969 58.707031 59.472656 Z M 58.707031 59.472656 " fill-opacity="1" fill-rule="nonzero"/><path fill="#d8b4fe" d="M 53.53125 12.644531 C 53.347656 12.535156 53.160156 12.421875 52.972656 12.316406 L 52.226562 13.621094 C 52.402344 13.722656 52.582031 13.828125 52.757812 13.933594 Z M 53.53125 12.644531 " fill-opacity="1" fill-rule="nonzero"/><path fill="#d8b4fe" d="M 62.535156 23.539062 L 63.808594 22.746094 C 63.570312 22.359375 63.316406 21.972656 63.058594 21.597656 L 61.820312 22.453125 C 62.066406 22.808594 62.308594 23.175781 62.535156 23.539062 Z M 62.535156 23.539062 " fill-opacity="1" fill-rule="nonzero"/><path fill="#d8b4fe" d="M 63.679688 25.542969 L 65.011719 24.847656 C 64.804688 24.445312 64.582031 24.039062 64.355469 23.648438 L 63.054688 24.398438 C 63.269531 24.773438 63.480469 25.15625 63.679688 25.542969 Z M 63.679688 25.542969 " fill-opacity="1" fill-rule="nonzero"/><path fill="#d8b4fe" d="M 61.238281 21.636719 L 62.445312 20.742188 C 62.175781 20.378906 61.890625 20.011719 61.605469 19.660156 L 60.4375 20.605469 C 60.710938 20.941406 60.980469 21.289062 61.238281 21.636719 Z M 61.238281 21.636719 " fill-opacity="1" fill-rule="nonzero"/><path fill="#d8b4fe" d="M 64.664062 27.625 L 66.046875 27.039062 C 65.871094 26.621094 65.679688 26.199219 65.484375 25.789062 L 64.128906 26.4375 C 64.316406 26.828125 64.496094 27.226562 64.664062 27.625 Z M 64.664062 27.625 " fill-opacity="1" fill-rule="nonzero"/><path fill="#d8b4fe" d="M 56.507812 16.609375 L 57.472656 15.460938 C 57.125 15.167969 56.765625 14.878906 56.40625 14.601562 L 55.492188 15.792969 C 55.835938 16.058594 56.175781 16.332031 56.507812 16.609375 Z M 56.507812 16.609375 " fill-opacity="1" fill-rule="nonzero"/><path fill="#d8b4fe" d="M 58.214844 18.160156 L 59.265625 17.089844 C 58.941406 16.769531 58.605469 16.453125 58.269531 16.152344 L 57.265625 17.269531 C 57.585938 17.558594 57.90625 17.855469 58.214844 18.160156 Z M 58.214844 18.160156 " fill-opacity="1" fill-rule="nonzero"/><path fill="#d8b4fe" d="M 55.558594 13.976562 C 55.1875 13.710938 54.808594 13.453125 54.425781 13.203125 L 53.609375 14.464844 C 53.972656 14.699219 54.332031 14.945312 54.6875 15.199219 Z M 55.558594 13.976562 " fill-opacity="1" fill-rule="nonzero"/><path fill="#d8b4fe" d="M 59.792969 19.839844 L 60.925781 18.851562 C 60.628906 18.511719 60.320312 18.167969 60.003906 17.839844 L 58.917969 18.875 C 59.214844 19.1875 59.511719 19.511719 59.792969 19.839844 Z M 59.792969 19.839844 " fill-opacity="1" fill-rule="nonzero"/><path fill="#d8b4fe" d="M 45.703125 34.976562 C 45.917969 34.78125 45.984375 34.472656 45.875 34.207031 L 45.1875 32.542969 C 45.078125 32.277344 44.808594 32.109375 44.519531 32.125 L 42.683594 32.21875 L 42.109375 31.644531 L 42.203125 29.804688 C 42.21875 29.519531 42.050781 29.25 41.78125 29.140625 L 40.121094 28.453125 C 39.855469 28.339844 39.546875 28.410156 39.351562 28.625 L 38.117188 29.992188 L 37.308594 29.992188 L 36.074219 28.625 C 35.878906 28.410156 35.574219 28.339844 35.304688 28.453125 L 33.644531 29.140625 C 33.378906 29.25 33.210938 29.519531 33.222656 29.804688 L 33.316406 31.644531 L 32.746094 32.21875 L 30.90625 32.125 C 30.617188 32.109375 30.351562 32.277344 30.242188 32.542969 L 29.550781 34.207031 C 29.441406 34.472656 29.511719 34.78125 29.726562 34.976562 L 31.09375 36.207031 L 31.09375 37.019531 L 29.726562 38.253906 C 29.511719 38.445312 29.441406 38.753906 29.550781 39.019531 L 30.242188 40.683594 C 30.351562 40.949219 30.617188 41.117188 30.90625 41.101562 L 32.746094 41.007812 L 33.316406 41.582031 L 33.222656 43.421875 C 33.210938 43.710938 33.378906 43.976562 33.644531 44.085938 L 35.304688 44.777344 C 35.574219 44.886719 35.878906 44.816406 36.074219 44.601562 L 37.308594 43.234375 L 38.117188 43.234375 L 39.351562 44.601562 C 39.484375 44.75 39.671875 44.828125 39.859375 44.828125 C 39.949219 44.828125 40.035156 44.8125 40.121094 44.777344 L 41.78125 44.085938 C 42.050781 43.976562 42.21875 43.710938 42.203125 43.421875 L 42.109375 41.582031 L 42.683594 41.007812 L 44.519531 41.101562 C 44.808594 41.117188 45.078125 40.949219 45.1875 40.683594 L 45.875 39.019531 C 45.984375 38.753906 45.917969 38.445312 45.703125 38.253906 L 44.335938 37.019531 L 44.335938 36.207031 Z M 43.195312 37.828125 L 44.429688 38.945312 L 44.109375 39.714844 L 42.449219 39.628906 C 42.253906 39.621094 42.066406 39.691406 41.929688 39.828125 L 40.929688 40.832031 C 40.792969 40.96875 40.71875 41.15625 40.730469 41.347656 L 40.816406 43.011719 L 40.042969 43.332031 L 38.929688 42.09375 C 38.800781 41.953125 38.613281 41.871094 38.421875 41.871094 L 37.003906 41.871094 C 36.8125 41.871094 36.628906 41.953125 36.496094 42.09375 L 35.382812 43.332031 L 34.613281 43.011719 L 34.695312 41.347656 C 34.707031 41.15625 34.632812 40.96875 34.496094 40.832031 L 33.496094 39.828125 C 33.359375 39.691406 33.171875 39.621094 32.976562 39.628906 L 31.316406 39.714844 L 30.996094 38.945312 L 32.230469 37.828125 C 32.375 37.699219 32.457031 37.515625 32.457031 37.324219 L 32.457031 35.90625 C 32.457031 35.710938 32.375 35.527344 32.230469 35.398438 L 30.996094 34.285156 L 31.316406 33.511719 L 32.976562 33.597656 C 33.171875 33.605469 33.359375 33.535156 33.496094 33.398438 L 34.496094 32.394531 C 34.632812 32.257812 34.707031 32.070312 34.695312 31.878906 L 34.613281 30.21875 L 35.382812 29.898438 L 36.496094 31.132812 C 36.628906 31.277344 36.8125 31.359375 37.003906 31.359375 L 38.421875 31.359375 C 38.613281 31.359375 38.800781 31.277344 38.929688 31.132812 L 40.042969 29.898438 L 40.816406 30.21875 L 40.730469 31.878906 C 40.71875 32.070312 40.792969 32.257812 40.929688 32.394531 L 41.929688 33.398438 C 42.066406 33.535156 42.253906 33.605469 42.449219 33.597656 L 44.109375 33.511719 L 44.429688 34.285156 L 43.195312 35.398438 C 43.050781 35.527344 42.96875 35.710938 42.96875 35.90625 L 42.96875 37.324219 C 42.96875 37.515625 43.050781 37.699219 43.195312 37.828125 Z M 43.195312 37.828125 " fill-opacity="1" fill-rule="nonzero"/><path fill="#d8b4fe" d="M 37.714844 32.855469 C 35.640625 32.855469 33.957031 34.542969 33.957031 36.613281 C 33.957031 38.6875 35.640625 40.371094 37.714844 40.371094 C 39.785156 40.371094 41.46875 38.6875 41.46875 36.613281 C 41.46875 34.542969 39.785156 32.855469 37.714844 32.855469 Z M 37.714844 39.007812 C 36.394531 39.007812 35.320312 37.933594 35.320312 36.613281 C 35.320312 35.296875 36.394531 34.222656 37.714844 34.222656 C 39.03125 34.222656 40.105469 35.292969 40.105469 36.613281 C 40.105469 37.933594 39.03125 39.007812 37.714844 39.007812 Z M 37.714844 39.007812 " fill-opacity="1" fill-rule="nonzero"/></svg>