<svg xmlns="http://www.w3.org/2000/svg" xmlns:xlink="http://www.w3.org/1999/xlink" width="100" zoomAndPan="magnify" viewBox="0 0 75 74.999997" height="100" preserveAspectRatio="xMidYMid meet" version="1.0"><defs><clipPath id="9d698af74a"><path d="M 0 8.859375 L 75 8.859375 L 75 65.859375 L 0 65.859375 Z M 0 8.859375 " clip-rule="nonzero"/></clipPath></defs><g clip-path="url(#9d698af74a)"><path fill="#d8b4fe" d="M 73.683594 47.164062 C 68.414062 40.878906 59.21875 38.761719 55.964844 38.1875 C 55.972656 37.996094 55.996094 37.808594 55.996094 37.617188 C 55.996094 27.65625 48.195312 19.523438 38.4375 19.054688 L 38.4375 15.847656 C 39.96875 15.449219 41.113281 14.070312 41.113281 12.414062 C 41.113281 10.453125 39.519531 8.859375 37.558594 8.859375 C 35.597656 8.859375 34 10.453125 34 12.414062 C 34 14.070312 35.144531 15.449219 36.675781 15.847656 L 36.675781 19.054688 C 26.917969 19.523438 19.121094 27.65625 19.121094 37.617188 C 19.121094 37.808594 19.144531 37.996094 19.148438 38.183594 C 15.898438 38.757812 6.703125 40.878906 1.433594 47.164062 C 1.070312 47.597656 0.570312 48.5625 1.3125 50.152344 C 2.316406 52.308594 5.804688 55.523438 12.800781 57.976562 C 14.285156 60.71875 15.464844 61.417969 16.660156 62.105469 C 21.453125 64.90625 27.703125 66.097656 37.558594 66.097656 C 47.410156 66.097656 53.664062 64.90625 58.636719 62.003906 C 59.671875 61.40625 60.832031 60.714844 62.3125 57.980469 C 69.3125 55.527344 72.796875 52.3125 73.804688 50.15625 C 74.542969 48.5625 74.046875 47.597656 73.683594 47.164062 Z M 35.765625 12.414062 C 35.765625 11.425781 36.566406 10.621094 37.558594 10.621094 C 38.546875 10.621094 39.347656 11.421875 39.347656 12.414062 C 39.347656 13.402344 38.546875 14.207031 37.558594 14.207031 C 36.566406 14.207031 35.765625 13.40625 35.765625 12.414062 Z M 37.558594 21.761719 C 46.207031 21.761719 53.242188 28.875 53.242188 37.613281 C 53.242188 38.085938 53.210938 38.550781 53.167969 39.011719 C 52.539062 39.8125 49.226562 43.136719 37.558594 43.136719 C 25.800781 43.136719 22.527344 39.765625 21.949219 39.023438 C 21.90625 38.558594 21.875 38.089844 21.875 37.613281 C 21.875 28.875 28.90625 21.761719 37.558594 21.761719 Z M 57.566406 60.585938 C 53.0625 63.210938 47.078125 64.335938 37.558594 64.335938 C 28.035156 64.335938 22.050781 63.210938 17.363281 60.480469 C 16.730469 60.113281 16.117188 59.757812 15.386719 58.800781 C 20.867188 60.375 28.121094 61.480469 37.558594 61.480469 C 46.988281 61.480469 54.242188 60.378906 59.726562 58.800781 C 58.976562 59.769531 58.320312 60.148438 57.566406 60.585938 Z M 37.558594 58.726562 C 11.359375 58.726562 4.128906 50.382812 3.707031 48.746094 C 8.527344 43.175781 17.273438 41.308594 19.886719 40.859375 C 21.226562 42.488281 25.464844 45.894531 37.558594 45.894531 C 49.65625 45.894531 53.894531 42.488281 55.230469 40.859375 C 57.839844 41.300781 66.574219 43.164062 71.410156 48.746094 C 70.988281 50.382812 63.753906 58.726562 37.558594 58.726562 Z M 37.558594 58.726562 " fill-opacity="1" fill-rule="nonzero"/></g><path fill="#d8b4fe" d="M 37.558594 48.878906 C 36.039062 48.878906 34.804688 50.117188 34.804688 51.636719 C 34.804688 53.152344 36.039062 54.390625 37.558594 54.390625 C 39.074219 54.390625 40.3125 53.152344 40.3125 51.636719 C 40.3125 50.117188 39.074219 48.878906 37.558594 48.878906 Z M 37.558594 52.625 C 37.011719 52.625 36.566406 52.179688 36.566406 51.636719 C 36.566406 51.089844 37.011719 50.644531 37.558594 50.644531 C 38.105469 50.644531 38.546875 51.089844 38.546875 51.636719 C 38.546875 52.179688 38.105469 52.625 37.558594 52.625 Z M 37.558594 52.625 " fill-opacity="1" fill-rule="nonzero"/><path fill="#d8b4fe" d="M 17.113281 45.082031 C 15.597656 45.082031 14.359375 46.316406 14.359375 47.835938 C 14.359375 49.351562 15.597656 50.589844 17.113281 50.589844 C 18.632812 50.589844 19.867188 49.351562 19.867188 47.835938 C 19.867188 46.316406 18.632812 45.082031 17.113281 45.082031 Z M 17.113281 48.828125 C 16.566406 48.828125 16.125 48.382812 16.125 47.835938 C 16.125 47.289062 16.566406 46.847656 17.113281 46.847656 C 17.660156 46.847656 18.105469 47.289062 18.105469 47.835938 C 18.105469 48.382812 17.660156 48.828125 17.113281 48.828125 Z M 17.113281 48.828125 " fill-opacity="1" fill-rule="nonzero"/><path fill="#d8b4fe" d="M 58 45.082031 C 56.480469 45.082031 55.246094 46.316406 55.246094 47.835938 C 55.246094 49.351562 56.480469 50.589844 58 50.589844 C 59.519531 50.589844 60.753906 49.351562 60.753906 47.835938 C 60.753906 46.316406 59.519531 45.082031 58 45.082031 Z M 58 48.828125 C 57.453125 48.828125 57.011719 48.382812 57.011719 47.835938 C 57.011719 47.289062 57.453125 46.847656 58 46.847656 C 58.546875 46.847656 58.988281 47.289062 58.988281 47.835938 C 58.988281 48.382812 58.546875 48.828125 58 48.828125 Z M 58 48.828125 " fill-opacity="1" fill-rule="nonzero"/><path fill="#d8b4fe" d="M 26.136719 33.996094 C 26.238281 34.035156 26.34375 34.050781 26.445312 34.050781 C 26.804688 34.050781 27.140625 33.832031 27.273438 33.480469 C 29.664062 27.097656 35.203125 26.476562 35.4375 26.453125 C 35.921875 26.40625 36.277344 25.972656 36.230469 25.492188 C 36.183594 25.007812 35.785156 24.660156 35.269531 24.699219 C 34.992188 24.722656 28.410156 25.421875 25.617188 32.859375 C 25.449219 33.320312 25.679688 33.824219 26.136719 33.996094 Z M 26.136719 33.996094 " fill-opacity="1" fill-rule="nonzero"/></svg>