<svg xmlns="http://www.w3.org/2000/svg" xmlns:xlink="http://www.w3.org/1999/xlink" width="100" zoomAndPan="magnify" viewBox="0 0 75 74.999997" height="100" preserveAspectRatio="xMidYMid meet" version="1.0"><defs><clipPath id="520b911456"><path d="M 0.03125 30.433594 L 39.839844 30.433594 L 39.839844 70.03125 L 0.03125 70.03125 Z M 0.03125 30.433594 " clip-rule="nonzero"/></clipPath><clipPath id="47aa9e4244"><path d="M 49 4.78125 L 55 4.78125 L 55 10 L 49 10 Z M 49 4.78125 " clip-rule="nonzero"/></clipPath><clipPath id="3a24ff3bd5"><path d="M 70.566406 48.929688 L 74.96875 48.929688 L 74.96875 53.363281 L 70.566406 53.363281 Z M 70.566406 48.929688 " clip-rule="nonzero"/></clipPath></defs><g clip-path="url(#520b911456)"><path fill="#d8b4fe" d="M 19.910156 57.285156 C 16.070312 57.28125 12.957031 54.160156 12.964844 50.320312 C 12.96875 46.476562 16.089844 43.363281 19.929688 43.371094 C 23.773438 43.375 26.886719 46.496094 26.878906 50.339844 C 26.875 54.179688 23.753906 57.292969 19.910156 57.285156 Z M 38.320312 47.652344 L 34.9375 46.929688 C 34.292969 46.792969 33.761719 46.332031 33.550781 45.707031 C 33.351562 45.117188 33.113281 44.546875 32.84375 43.992188 C 32.550781 43.398438 32.601562 42.695312 32.964844 42.140625 L 34.851562 39.253906 C 35.339844 38.507812 35.242188 37.523438 34.609375 36.890625 L 33.398438 35.675781 C 32.769531 35.046875 31.785156 34.941406 31.039062 35.429688 L 28.144531 37.308594 C 27.589844 37.671875 26.886719 37.71875 26.292969 37.425781 C 25.742188 37.152344 25.167969 36.914062 24.582031 36.710938 C 23.957031 36.496094 23.496094 35.964844 23.359375 35.320312 L 22.652344 31.9375 C 22.46875 31.066406 21.699219 30.441406 20.808594 30.441406 L 19.089844 30.4375 C 18.199219 30.4375 17.429688 31.058594 17.246094 31.929688 L 16.523438 35.3125 C 16.386719 35.957031 15.925781 36.488281 15.300781 36.699219 C 14.710938 36.898438 14.140625 37.136719 13.585938 37.40625 C 12.992188 37.699219 12.289062 37.648438 11.734375 37.285156 L 8.847656 35.398438 C 8.101562 34.910156 7.117188 35.007812 6.484375 35.640625 L 5.269531 36.851562 C 4.640625 37.480469 4.535156 38.464844 5.023438 39.210938 L 6.902344 42.105469 C 7.265625 42.660156 7.3125 43.363281 7.019531 43.957031 C 6.746094 44.507812 6.507812 45.082031 6.304688 45.671875 C 6.089844 46.292969 5.558594 46.753906 4.914062 46.890625 L 1.53125 47.597656 C 0.660156 47.78125 0.0351562 48.550781 0.0351562 49.441406 L 0.03125 51.160156 C 0.03125 52.050781 0.652344 52.820312 1.523438 53.003906 L 4.90625 53.726562 C 5.550781 53.863281 6.082031 54.324219 6.292969 54.949219 C 6.492188 55.539062 6.726562 56.109375 7 56.664062 C 7.292969 57.257812 7.242188 57.960938 6.878906 58.515625 L 4.992188 61.402344 C 4.503906 62.148438 4.605469 63.132812 5.234375 63.765625 L 6.445312 64.980469 C 7.074219 65.609375 8.058594 65.714844 8.804688 65.226562 L 11.699219 63.347656 C 12.253906 62.984375 12.957031 62.9375 13.550781 63.230469 C 14.101562 63.503906 14.675781 63.742188 15.261719 63.945312 C 15.886719 64.160156 16.347656 64.691406 16.484375 65.335938 L 17.191406 68.71875 C 17.375 69.589844 18.144531 70.214844 19.035156 70.214844 L 20.753906 70.21875 C 21.644531 70.21875 22.414062 69.597656 22.597656 68.726562 L 23.320312 65.34375 C 23.457031 64.699219 23.917969 64.171875 24.542969 63.957031 C 25.132812 63.757812 25.703125 63.523438 26.257812 63.25 C 26.851562 62.957031 27.554688 63.007812 28.109375 63.371094 L 30.996094 65.257812 C 31.742188 65.746094 32.726562 65.644531 33.359375 65.015625 L 34.574219 63.804688 C 35.203125 63.175781 35.308594 62.191406 34.820312 61.445312 L 32.941406 58.550781 C 32.578125 57.996094 32.53125 57.292969 32.824219 56.699219 C 33.097656 56.148438 33.335938 55.574219 33.539062 54.988281 C 33.753906 54.363281 34.285156 53.902344 34.929688 53.765625 L 38.3125 53.058594 C 39.183594 52.875 39.808594 52.105469 39.808594 51.214844 L 39.8125 49.496094 C 39.8125 48.605469 39.191406 47.835938 38.320312 47.652344 " fill-opacity="1" fill-rule="nonzero"/></g><path fill="#d8b4fe" d="M 26.875 21.460938 L 28.960938 21.460938 L 28.960938 19.078125 C 28.960938 18.691406 28.648438 18.382812 28.265625 18.382812 L 27.472656 18.382812 C 27.085938 18.382812 26.777344 18.691406 26.777344 19.078125 L 26.777344 21.464844 C 26.808594 21.460938 26.839844 21.460938 26.875 21.460938 " fill-opacity="1" fill-rule="nonzero"/><path fill="#d8b4fe" d="M 33.597656 21.460938 L 33.597656 19.078125 C 33.597656 18.691406 33.289062 18.382812 32.902344 18.382812 L 32.109375 18.382812 C 31.726562 18.382812 31.414062 18.691406 31.414062 19.078125 L 31.414062 21.460938 L 33.597656 21.460938 " fill-opacity="1" fill-rule="nonzero"/><path fill="#d8b4fe" d="M 38.238281 21.460938 L 38.238281 19.078125 C 38.238281 18.691406 37.925781 18.382812 37.542969 18.382812 L 36.75 18.382812 C 36.363281 18.382812 36.054688 18.691406 36.054688 19.078125 L 36.054688 21.460938 L 38.238281 21.460938 " fill-opacity="1" fill-rule="nonzero"/><path fill="#d8b4fe" d="M 42.875 21.460938 L 42.875 19.078125 C 42.875 18.691406 42.566406 18.382812 42.179688 18.382812 L 41.386719 18.382812 C 41.003906 18.382812 40.691406 18.691406 40.691406 19.078125 L 40.691406 21.460938 L 42.875 21.460938 " fill-opacity="1" fill-rule="nonzero"/><path fill="#d8b4fe" d="M 47.515625 21.460938 L 47.515625 19.078125 C 47.515625 18.691406 47.203125 18.382812 46.820312 18.382812 L 46.027344 18.382812 C 45.640625 18.382812 45.332031 18.691406 45.332031 19.078125 L 45.332031 21.460938 L 47.515625 21.460938 " fill-opacity="1" fill-rule="nonzero"/><path fill="#d8b4fe" d="M 52.054688 21.460938 C 52.085938 21.460938 52.121094 21.460938 52.152344 21.464844 L 52.152344 19.078125 C 52.152344 18.691406 51.839844 18.382812 51.457031 18.382812 L 50.664062 18.382812 C 50.28125 18.382812 49.96875 18.691406 49.96875 19.078125 L 49.96875 21.460938 L 52.054688 21.460938 " fill-opacity="1" fill-rule="nonzero"/><path fill="#d8b4fe" d="M 56.285156 25.605469 L 56.285156 27.6875 L 58.667969 27.6875 C 59.050781 27.6875 59.363281 27.378906 59.363281 26.996094 L 59.363281 26.199219 C 59.363281 25.816406 59.050781 25.503906 58.667969 25.503906 L 56.28125 25.503906 C 56.28125 25.539062 56.285156 25.570312 56.285156 25.605469 " fill-opacity="1" fill-rule="nonzero"/><path fill="#d8b4fe" d="M 56.285156 32.328125 L 58.667969 32.328125 C 59.050781 32.328125 59.363281 32.015625 59.363281 31.632812 L 59.363281 30.839844 C 59.363281 30.457031 59.050781 30.144531 58.667969 30.144531 L 56.285156 30.144531 L 56.285156 32.328125 " fill-opacity="1" fill-rule="nonzero"/><path fill="#d8b4fe" d="M 56.285156 36.964844 L 58.667969 36.964844 C 59.050781 36.964844 59.363281 36.65625 59.363281 36.269531 L 59.363281 35.476562 C 59.363281 35.09375 59.050781 34.78125 58.667969 34.78125 L 56.285156 34.78125 L 56.285156 36.964844 " fill-opacity="1" fill-rule="nonzero"/><path fill="#d8b4fe" d="M 56.285156 41.605469 L 58.667969 41.605469 C 59.050781 41.605469 59.363281 41.292969 59.363281 40.910156 L 59.363281 40.117188 C 59.363281 39.734375 59.050781 39.421875 58.667969 39.421875 L 56.285156 39.421875 L 56.285156 41.605469 " fill-opacity="1" fill-rule="nonzero"/><path fill="#d8b4fe" d="M 56.285156 46.242188 L 58.667969 46.242188 C 59.050781 46.242188 59.363281 45.933594 59.363281 45.546875 L 59.363281 44.753906 C 59.363281 44.371094 59.050781 44.058594 58.667969 44.058594 L 56.285156 44.058594 L 56.285156 46.242188 " fill-opacity="1" fill-rule="nonzero"/><path fill="#d8b4fe" d="M 56.285156 50.785156 C 56.285156 50.816406 56.28125 50.847656 56.28125 50.882812 L 58.667969 50.882812 C 59.050781 50.882812 59.363281 50.570312 59.363281 50.1875 L 59.363281 49.394531 C 59.363281 49.007812 59.050781 48.699219 58.667969 48.699219 L 56.285156 48.699219 L 56.285156 50.785156 " fill-opacity="1" fill-rule="nonzero"/><path fill="#d8b4fe" d="M 52.054688 55.011719 L 49.96875 55.011719 L 49.96875 57.394531 C 49.96875 57.777344 50.28125 58.089844 50.664062 58.089844 L 51.457031 58.089844 C 51.839844 58.089844 52.152344 57.777344 52.152344 57.394531 L 52.152344 55.007812 C 52.121094 55.007812 52.085938 55.011719 52.054688 55.011719 " fill-opacity="1" fill-rule="nonzero"/><path fill="#d8b4fe" d="M 45.332031 55.011719 L 45.332031 57.394531 C 45.332031 57.777344 45.640625 58.089844 46.027344 58.089844 L 46.820312 58.089844 C 47.203125 58.089844 47.515625 57.777344 47.515625 57.394531 L 47.515625 55.011719 L 45.332031 55.011719 " fill-opacity="1" fill-rule="nonzero"/><path fill="#d8b4fe" d="M 40.691406 55.011719 L 40.691406 57.394531 C 40.691406 57.777344 41.003906 58.089844 41.386719 58.089844 L 42.179688 58.089844 C 42.566406 58.089844 42.875 57.777344 42.875 57.394531 L 42.875 55.011719 L 40.691406 55.011719 " fill-opacity="1" fill-rule="nonzero"/><path fill="#d8b4fe" d="M 22.644531 25.679688 C 22.644531 25.644531 22.648438 25.613281 22.648438 25.582031 L 20.261719 25.582031 C 19.878906 25.582031 19.566406 25.890625 19.566406 26.273438 L 19.566406 27.070312 C 19.566406 27.453125 19.878906 27.765625 20.261719 27.765625 L 22.644531 27.765625 L 22.644531 25.679688 " fill-opacity="1" fill-rule="nonzero"/><g clip-path="url(#47aa9e4244)"><path fill="#d8b4fe" d="M 54.25 6.976562 C 54.25 8.1875 53.265625 9.171875 52.054688 9.171875 C 50.84375 9.171875 49.859375 8.1875 49.859375 6.976562 C 49.859375 5.765625 50.84375 4.78125 52.054688 4.78125 C 53.265625 4.78125 54.25 5.765625 54.25 6.976562 " fill-opacity="1" fill-rule="nonzero"/></g><path fill="#d8b4fe" d="M 74.339844 21.140625 C 74.339844 19.929688 73.355469 18.945312 72.144531 18.945312 C 70.933594 18.945312 69.949219 19.929688 69.949219 21.140625 C 69.949219 22.351562 70.933594 23.335938 72.144531 23.335938 C 73.355469 23.335938 74.339844 22.351562 74.339844 21.140625 " fill-opacity="1" fill-rule="nonzero"/><g clip-path="url(#3a24ff3bd5)"><path fill="#d8b4fe" d="M 72.773438 53.34375 C 73.984375 53.34375 74.96875 52.359375 74.96875 51.148438 C 74.96875 49.9375 73.984375 48.953125 72.773438 48.953125 C 71.5625 48.953125 70.578125 49.9375 70.578125 51.148438 C 70.578125 52.359375 71.5625 53.34375 72.773438 53.34375 " fill-opacity="1" fill-rule="nonzero"/></g><path fill="#d8b4fe" d="M 22.640625 8.710938 C 23.851562 8.710938 24.835938 9.695312 24.835938 10.90625 C 24.835938 12.117188 23.851562 13.101562 22.640625 13.101562 C 21.429688 13.101562 20.445312 12.117188 20.445312 10.90625 C 20.445312 9.695312 21.429688 8.710938 22.640625 8.710938 " fill-opacity="1" fill-rule="nonzero"/><path fill="#d8b4fe" d="M 54.742188 69.070312 C 53.53125 69.070312 52.546875 68.089844 52.546875 66.878906 C 52.546875 65.664062 53.53125 64.683594 54.742188 64.683594 C 55.953125 64.683594 56.9375 65.664062 56.9375 66.878906 C 56.9375 68.089844 55.953125 69.070312 54.742188 69.070312 " fill-opacity="1" fill-rule="nonzero"/><path fill="#d8b4fe" d="M 30.015625 12 L 30.015625 16.792969 C 30.074219 16.839844 30.132812 16.886719 30.1875 16.9375 C 30.699219 16.476562 31.371094 16.199219 32.109375 16.199219 L 32.199219 16.199219 L 32.199219 10.90625 C 32.199219 10.304688 31.710938 9.816406 31.105469 9.816406 L 26.882812 9.816406 C 26.972656 10.164062 27.019531 10.53125 27.019531 10.90625 C 27.019531 11.285156 26.972656 11.648438 26.882812 12 L 30.015625 12 " fill-opacity="1" fill-rule="nonzero"/><path fill="#d8b4fe" d="M 47.367188 65.785156 L 47.367188 60.21875 C 47.191406 60.253906 47.007812 60.273438 46.820312 60.273438 L 46.027344 60.273438 C 45.734375 60.273438 45.449219 60.230469 45.183594 60.148438 L 45.183594 66.878906 C 45.183594 67.480469 45.671875 67.96875 46.277344 67.96875 L 50.5 67.96875 C 50.410156 67.621094 50.363281 67.253906 50.363281 66.878906 C 50.363281 66.5 50.410156 66.132812 50.5 65.785156 L 47.367188 65.785156 " fill-opacity="1" fill-rule="nonzero"/><path fill="#d8b4fe" d="M 68.53125 50.054688 L 66.183594 50.054688 L 66.183594 44.117188 C 66.183594 43.511719 65.695312 43.023438 65.09375 43.023438 L 60.964844 43.023438 C 61.332031 43.507812 61.546875 44.105469 61.546875 44.753906 L 61.546875 45.207031 L 64 45.207031 L 64 51.148438 C 64 51.75 64.488281 52.242188 65.09375 52.242188 L 68.53125 52.242188 C 68.441406 51.890625 68.394531 51.527344 68.394531 51.148438 C 68.394531 50.773438 68.441406 50.40625 68.53125 50.054688 " fill-opacity="1" fill-rule="nonzero"/><path fill="#d8b4fe" d="M 67.902344 20.050781 L 64.929688 20.050781 C 64.324219 20.050781 63.835938 20.539062 63.835938 21.140625 L 63.835938 30.03125 L 61.429688 30.03125 C 61.507812 30.285156 61.546875 30.558594 61.546875 30.839844 L 61.546875 31.632812 C 61.546875 31.832031 61.527344 32.027344 61.488281 32.214844 L 64.929688 32.214844 C 65.53125 32.214844 66.019531 31.726562 66.019531 31.121094 L 66.019531 22.234375 L 67.902344 22.234375 C 67.8125 21.882812 67.765625 21.519531 67.765625 21.140625 C 67.765625 20.765625 67.8125 20.398438 67.902344 20.050781 " fill-opacity="1" fill-rule="nonzero"/><path fill="#d8b4fe" d="M 46.027344 16.199219 L 46.820312 16.199219 C 47.191406 16.199219 47.546875 16.269531 47.871094 16.398438 L 47.871094 14.675781 L 52.054688 14.675781 C 52.65625 14.675781 53.144531 14.1875 53.144531 13.582031 L 53.144531 10.769531 C 52.796875 10.859375 52.429688 10.90625 52.054688 10.90625 C 51.675781 10.90625 51.3125 10.859375 50.960938 10.769531 L 50.960938 12.492188 L 46.78125 12.492188 C 46.179688 12.492188 45.6875 12.980469 45.6875 13.582031 L 45.6875 16.21875 C 45.800781 16.207031 45.910156 16.199219 46.027344 16.199219 " fill-opacity="1" fill-rule="nonzero"/><path fill="#d8b4fe" d="M 48.898438 46.660156 L 47.050781 44.820312 C 47.242188 44.589844 47.347656 44.296875 47.347656 43.996094 L 47.347656 32.476562 C 47.347656 32.164062 47.234375 31.863281 47.03125 31.628906 L 48.875 29.78125 C 49.003906 29.652344 49.003906 29.445312 48.875 29.316406 L 48.355469 28.800781 C 48.226562 28.671875 48.019531 28.671875 47.890625 28.800781 L 46.046875 30.652344 C 45.820312 30.472656 45.539062 30.375 45.246094 30.375 L 33.683594 30.375 C 33.382812 30.375 33.089844 30.480469 32.859375 30.667969 L 31.011719 28.824219 C 30.882812 28.695312 30.675781 28.695312 30.546875 28.824219 L 30.03125 29.34375 C 29.902344 29.472656 29.902344 29.679688 30.03125 29.808594 L 31.878906 31.652344 C 31.6875 31.882812 31.578125 32.171875 31.578125 32.476562 L 31.578125 32.96875 C 31.738281 32.949219 31.902344 32.9375 32.066406 32.9375 C 33.152344 32.9375 34.175781 33.363281 34.945312 34.136719 L 36.15625 35.347656 C 36.8125 36.007812 37.230469 36.882812 37.324219 37.808594 C 37.417969 38.734375 37.191406 39.671875 36.679688 40.449219 L 34.882812 43.195312 C 35.136719 43.726562 35.363281 44.277344 35.558594 44.832031 L 38.773438 45.515625 C 39.273438 45.621094 39.742188 45.820312 40.164062 46.097656 L 45.246094 46.097656 C 45.546875 46.097656 45.839844 45.992188 46.070312 45.800781 L 47.917969 47.644531 C 48.046875 47.773438 48.253906 47.773438 48.382812 47.644531 L 48.898438 47.128906 C 49.027344 47 49.027344 46.789062 48.898438 46.660156 " fill-opacity="1" fill-rule="nonzero"/><path fill="#d8b4fe" d="M 52.054688 23.644531 L 26.875 23.644531 C 25.746094 23.644531 24.832031 24.558594 24.832031 25.6875 L 24.832031 31.699219 L 25.464844 34.707031 C 26.019531 34.902344 26.566406 35.132812 27.097656 35.386719 L 29.394531 33.890625 L 29.394531 32.476562 C 29.394531 32.40625 29.398438 32.335938 29.402344 32.269531 L 28.488281 31.355469 C 28.011719 30.882812 27.75 30.25 27.75 29.578125 C 27.75 28.910156 28.007812 28.277344 28.484375 27.800781 L 29 27.285156 C 29.472656 26.808594 30.105469 26.546875 30.777344 26.546875 C 31.449219 26.546875 32.078125 26.804688 32.554688 27.277344 L 33.472656 28.195312 C 33.542969 28.191406 33.613281 28.191406 33.683594 28.191406 L 45.246094 28.191406 C 45.300781 28.191406 45.355469 28.191406 45.414062 28.195312 L 46.34375 27.257812 C 46.820312 26.78125 47.453125 26.519531 48.125 26.519531 C 48.792969 26.519531 49.425781 26.78125 49.898438 27.253906 L 50.414062 27.769531 C 50.890625 28.242188 51.152344 28.875 51.15625 29.546875 C 51.15625 30.21875 50.894531 30.847656 50.421875 31.324219 L 49.523438 32.222656 C 49.53125 32.308594 49.53125 32.390625 49.53125 32.476562 L 49.53125 43.996094 C 49.53125 44.066406 49.53125 44.132812 49.527344 44.203125 L 50.441406 45.113281 C 50.917969 45.589844 51.179688 46.21875 51.179688 46.890625 C 51.179688 47.5625 50.917969 48.195312 50.445312 48.667969 L 49.929688 49.1875 C 49.457031 49.664062 48.824219 49.925781 48.148438 49.925781 C 47.480469 49.925781 46.851562 49.664062 46.375 49.191406 L 45.457031 48.273438 C 45.386719 48.28125 45.316406 48.28125 45.246094 48.28125 L 41.808594 48.28125 C 41.933594 48.675781 41.996094 49.085938 41.996094 49.5 L 41.992188 51.21875 C 41.992188 51.773438 41.875 52.320312 41.65625 52.828125 L 52.054688 52.828125 C 53.183594 52.828125 54.097656 51.910156 54.097656 50.785156 L 54.097656 25.6875 C 54.097656 24.558594 53.183594 23.644531 52.054688 23.644531 " fill-opacity="1" fill-rule="nonzero"/><path fill="#d8b4fe" d="M 36.054688 55.761719 L 36.054688 57.394531 C 36.054688 57.777344 36.363281 58.089844 36.75 58.089844 L 37.542969 58.089844 C 37.925781 58.089844 38.238281 57.777344 38.238281 57.394531 L 38.238281 55.304688 L 36.054688 55.761719 " fill-opacity="1" fill-rule="nonzero"/></svg>