<svg xmlns="http://www.w3.org/2000/svg" xmlns:xlink="http://www.w3.org/1999/xlink" width="400" zoomAndPan="magnify" viewBox="0 0 300 299.999988" height="400" preserveAspectRatio="xMidYMid meet" version="1.0"><path fill="#ffffff" d="M 25.886719 33.332031 C 20.417969 33.332031 15.578125 36.925781 13.960938 42.136719 L 0.472656 85.9375 C 0.160156 86.976562 0.00390625 88.070312 0.00390625 89.113281 C 0.00390625 95.15625 4.847656 99.996094 10.890625 99.996094 L 59.847656 99.996094 L 73.179688 33.332031 Z M 141.667969 99.996094 L 141.667969 33.332031 L 90.15625 33.332031 L 76.824219 99.996094 Z M 158.332031 99.996094 L 223.175781 99.996094 L 209.84375 33.332031 L 158.332031 33.332031 Z M 240.152344 99.996094 L 289.109375 99.996094 C 295.101562 99.996094 299.996094 95.15625 299.996094 89.113281 C 299.996094 88.019531 299.839844 86.976562 299.527344 85.9375 L 286.039062 42.136719 C 284.421875 36.925781 279.582031 33.332031 274.113281 33.332031 L 226.820312 33.332031 Z M 16.671875 116.664062 L 18.753906 133.332031 L 16.671875 133.332031 C 7.453125 133.332031 0.00390625 140.777344 0.00390625 149.996094 C 0.00390625 159.214844 7.453125 166.664062 16.671875 166.664062 L 22.917969 166.664062 L 33.335938 249.996094 C 33.335938 259.210938 40.785156 266.660156 50.003906 266.660156 C 59.222656 266.660156 66.667969 259.210938 66.667969 249.996094 L 233.332031 249.996094 C 233.332031 259.210938 240.777344 266.660156 249.996094 266.660156 C 259.214844 266.660156 266.664062 259.210938 266.664062 249.996094 L 277.082031 166.664062 L 283.328125 166.664062 C 292.546875 166.664062 299.996094 159.214844 299.996094 149.996094 C 299.996094 140.777344 292.546875 133.332031 283.328125 133.332031 L 281.246094 133.332031 L 283.328125 116.664062 Z M 16.671875 116.664062 " fill-opacity="1" fill-rule="nonzero"/></svg>