<svg xmlns="http://www.w3.org/2000/svg" xmlns:xlink="http://www.w3.org/1999/xlink" width="400" zoomAndPan="magnify" viewBox="0 0 300 299.999988" height="400" preserveAspectRatio="xMidYMid meet" version="1.0"><path fill="#ffffff" d="M 206.25 150 C 206.25 163.007812 205.546875 175.546875 204.316406 187.5 L 95.742188 187.5 C 94.453125 175.546875 93.808594 163.007812 93.808594 150 C 93.808594 136.992188 94.511719 124.453125 95.742188 112.5 L 204.316406 112.5 C 205.605469 124.453125 206.25 136.992188 206.25 150 Z M 223.125 112.5 L 295.253906 112.5 C 298.359375 124.511719 300 137.050781 300 150 C 300 162.949219 298.359375 175.488281 295.253906 187.5 L 223.125 187.5 C 224.355469 175.429688 225 162.890625 225 150 C 225 137.109375 224.355469 124.570312 223.125 112.5 Z M 289.101562 93.75 L 220.722656 93.75 C 214.863281 56.308594 203.261719 24.960938 188.320312 4.921875 C 234.199219 17.050781 271.523438 50.332031 289.042969 93.75 Z M 201.738281 93.75 L 98.261719 93.75 C 101.835938 72.421875 107.34375 53.554688 114.082031 38.261719 C 120.234375 24.433594 127.089844 14.414062 133.710938 8.085938 C 140.273438 1.875 145.722656 0 150 0 C 154.277344 0 159.726562 1.875 166.289062 8.085938 C 172.910156 14.414062 179.765625 24.433594 185.917969 38.261719 C 192.714844 53.496094 198.164062 72.363281 201.738281 93.75 Z M 79.277344 93.75 L 10.898438 93.75 C 28.476562 50.332031 65.742188 17.050781 111.679688 4.921875 C 96.738281 24.960938 85.136719 56.308594 79.277344 93.75 Z M 4.746094 112.5 L 76.875 112.5 C 75.644531 124.570312 75 137.109375 75 150 C 75 162.890625 75.644531 175.429688 76.875 187.5 L 4.746094 187.5 C 1.640625 175.488281 0 162.949219 0 150 C 0 137.050781 1.640625 124.511719 4.746094 112.5 Z M 114.082031 261.679688 C 107.285156 246.445312 101.835938 227.578125 98.261719 206.25 L 201.738281 206.25 C 198.164062 227.578125 192.65625 246.445312 185.917969 261.679688 C 179.765625 275.507812 172.910156 285.527344 166.289062 291.855469 C 159.726562 298.125 154.277344 300 150 300 C 145.722656 300 140.273438 298.125 133.710938 291.914062 C 127.089844 285.585938 120.234375 275.566406 114.082031 261.738281 Z M 79.277344 206.25 C 85.136719 243.691406 96.738281 275.039062 111.679688 295.078125 C 65.742188 282.949219 28.476562 249.667969 10.898438 206.25 Z M 289.101562 206.25 C 271.523438 249.667969 234.257812 282.949219 188.378906 295.078125 C 203.320312 275.039062 214.863281 243.691406 220.78125 206.25 L 289.160156 206.25 Z M 289.101562 206.25 " fill-opacity="1" fill-rule="nonzero"/></svg>