<svg xmlns="http://www.w3.org/2000/svg" xmlns:xlink="http://www.w3.org/1999/xlink" width="500" zoomAndPan="magnify" viewBox="0 0 375 74.999997" height="100" preserveAspectRatio="xMidYMid meet" version="1.0"><path fill="#ffffff" d="M 63.691406 26.988281 C 63.691406 31.769531 61.746094 35.03125 57.859375 36.777344 C 61.441406 37.960938 63.890625 40.128906 65.199219 43.285156 C 65.679688 44.515625 65.921875 45.9375 65.921875 47.554688 C 65.921875 52.8125 63.148438 56.316406 57.597656 58.070312 C 55.757812 58.683594 53.589844 58.988281 51.101562 58.988281 L 30.511719 58.988281 L 30.511719 15.496094 L 49.984375 15.496094 C 54.664062 15.496094 58.230469 16.765625 60.679688 19.300781 C 62.6875 21.320312 63.691406 23.882812 63.691406 26.988281 Z M 35.429688 34.941406 L 49.984375 34.941406 C 54.003906 34.941406 56.695312 33.5625 58.054688 30.804688 C 58.535156 29.839844 58.777344 28.800781 58.777344 27.6875 C 58.777344 26.570312 58.621094 25.585938 58.320312 24.730469 C 58.011719 23.871094 57.53125 23.113281 56.875 22.460938 C 55.429688 20.925781 53.308594 20.15625 50.511719 20.15625 L 35.429688 20.15625 Z M 51.632812 54.328125 C 54.644531 54.328125 56.957031 53.703125 58.574219 52.457031 C 60.195312 51.203125 61.003906 49.4375 61.003906 47.160156 C 61.003906 44.96875 60.21875 43.175781 58.644531 41.773438 C 56.894531 40.199219 54.378906 39.410156 51.101562 39.410156 L 35.429688 39.410156 L 35.429688 54.328125 Z M 51.632812 54.328125 " fill-opacity="1" fill-rule="nonzero"/><path fill="#ffffff" d="M 349.558594 58.988281 L 344.113281 58.988281 L 338.800781 46.375 L 317.292969 46.375 L 311.980469 58.988281 L 306.535156 58.988281 L 324.96875 15.496094 L 331.128906 15.496094 Z M 336.898438 41.835938 L 328.050781 20.617188 L 319.199219 41.835938 Z M 336.898438 41.835938 " fill-opacity="1" fill-rule="nonzero"/><path fill="#ffffff" d="M 169.125 20.226562 L 153.980469 20.226562 L 153.980469 58.988281 L 149.0625 58.988281 L 149.0625 20.226562 L 133.90625 20.226562 L 133.90625 15.496094 L 169.125 15.496094 Z M 169.125 20.226562 " fill-opacity="1" fill-rule="nonzero"/><path fill="#ffffff" d="M 100.800781 14.96875 C 107.273438 14.96875 112.585938 17.136719 116.738281 21.472656 C 120.804688 25.679688 122.835938 30.941406 122.835938 37.246094 C 122.835938 43.550781 120.804688 48.804688 116.738281 53.011719 C 112.585938 57.351562 107.273438 59.515625 100.800781 59.515625 C 94.332031 59.515625 89.019531 57.351562 84.863281 53.011719 C 80.796875 48.804688 78.765625 43.550781 78.765625 37.246094 C 78.765625 30.941406 80.796875 25.679688 84.863281 21.472656 C 89.019531 17.136719 94.332031 14.96875 100.800781 14.96875 Z M 100.800781 54.714844 C 105.957031 54.714844 110.132812 53.027344 113.328125 49.65625 C 116.390625 46.414062 117.921875 42.277344 117.921875 37.238281 C 117.921875 32.203125 116.390625 28.0625 113.328125 24.828125 C 110.132812 21.457031 105.957031 19.769531 100.800781 19.769531 C 95.640625 19.769531 91.46875 21.457031 88.28125 24.828125 C 85.21875 28.0625 83.691406 32.203125 83.691406 37.238281 C 83.691406 42.277344 85.21875 46.414062 88.28125 49.65625 C 91.46875 53.027344 95.640625 54.714844 100.800781 54.714844 Z M 100.800781 54.714844 " fill-opacity="1" fill-rule="nonzero"/><path fill="#ffffff" d="M 244.648438 58.988281 L 239.734375 58.988281 L 239.734375 15.496094 L 259.277344 15.496094 C 263.863281 15.496094 267.515625 16.765625 270.226562 19.300781 C 272.894531 21.84375 274.226562 25.238281 274.226562 29.488281 C 274.226562 33.785156 272.882812 37.191406 270.191406 39.710938 C 267.5 42.222656 263.863281 43.476562 259.277344 43.476562 L 244.648438 43.476562 Z M 244.648438 20.15625 L 244.648438 38.878906 L 258.949219 38.878906 C 262.355469 38.878906 264.933594 38.050781 266.6875 36.390625 C 268.433594 34.726562 269.3125 32.4375 269.3125 29.523438 C 269.3125 26.609375 268.433594 24.320312 266.6875 22.65625 C 264.933594 20.992188 262.355469 20.15625 258.949219 20.15625 Z M 244.648438 20.15625 " fill-opacity="1" fill-rule="nonzero"/><path fill="#ffffff" d="M 288.515625 15.496094 L 293.433594 15.496094 L 293.433594 58.988281 L 288.515625 58.988281 Z M 288.515625 15.496094 " fill-opacity="1" fill-rule="nonzero"/><path fill="#ffffff" d="M 202.230469 14.96875 C 208.703125 14.96875 214.015625 17.136719 218.167969 21.472656 C 222.234375 25.679688 224.265625 30.941406 224.265625 37.246094 C 224.265625 43.550781 222.234375 48.804688 218.167969 53.011719 C 214.015625 57.351562 208.703125 59.515625 202.230469 59.515625 C 195.761719 59.515625 190.449219 57.351562 186.292969 53.011719 C 182.226562 48.804688 180.195312 43.550781 180.195312 37.246094 C 180.195312 30.941406 182.226562 25.679688 186.292969 21.472656 C 190.449219 17.136719 195.761719 14.96875 202.230469 14.96875 Z M 202.230469 54.714844 C 207.386719 54.714844 211.5625 53.027344 214.757812 49.65625 C 217.820312 46.414062 219.351562 42.277344 219.351562 37.238281 C 219.351562 32.203125 217.820312 28.0625 214.757812 24.828125 C 211.5625 21.457031 207.386719 19.769531 202.230469 19.769531 C 197.070312 19.769531 192.898438 21.457031 189.710938 24.828125 C 186.648438 28.0625 185.121094 32.203125 185.121094 37.238281 C 185.121094 42.277344 186.648438 46.414062 189.710938 49.65625 C 192.898438 53.027344 197.070312 54.714844 202.230469 54.714844 Z M 202.230469 54.714844 " fill-opacity="1" fill-rule="nonzero"/></svg>