<svg xmlns="http://www.w3.org/2000/svg" xmlns:xlink="http://www.w3.org/1999/xlink" width="400" zoomAndPan="magnify" viewBox="0 0 300 299.999988" height="400" preserveAspectRatio="xMidYMid meet" version="1.0"><path fill="#ffffff" d="M 150 30 C 158.296875 30 165 36.703125 165 45 L 165 75 L 221.25 75 C 239.90625 75 255 90.09375 255 108.75 L 255 236.25 C 255 254.90625 239.90625 270 221.25 270 L 78.75 270 C 60.09375 270 45 254.90625 45 236.25 L 45 108.75 C 45 90.09375 60.09375 75 78.75 75 L 135 75 L 135 45 C 135 36.703125 141.703125 30 150 30 Z M 97.5 210 C 93.375 210 90 213.375 90 217.5 C 90 221.625 93.375 225 97.5 225 L 112.5 225 C 116.625 225 120 221.625 120 217.5 C 120 213.375 116.625 210 112.5 210 Z M 142.5 210 C 138.375 210 135 213.375 135 217.5 C 135 221.625 138.375 225 142.5 225 L 157.5 225 C 161.625 225 165 221.625 165 217.5 C 165 213.375 161.625 210 157.5 210 Z M 187.5 210 C 183.375 210 180 213.375 180 217.5 C 180 221.625 183.375 225 187.5 225 L 202.5 225 C 206.625 225 210 221.625 210 217.5 C 210 213.375 206.625 210 202.5 210 Z M 123.75 150 C 123.75 149.386719 123.71875 148.773438 123.660156 148.164062 C 123.597656 147.550781 123.507812 146.945312 123.390625 146.34375 C 123.269531 145.738281 123.121094 145.144531 122.941406 144.558594 C 122.765625 143.96875 122.558594 143.390625 122.324219 142.824219 C 122.085938 142.257812 121.824219 141.703125 121.535156 141.160156 C 121.246094 140.621094 120.929688 140.09375 120.589844 139.582031 C 120.25 139.074219 119.882812 138.578125 119.492188 138.105469 C 119.105469 137.628906 118.691406 137.175781 118.257812 136.742188 C 117.824219 136.308594 117.371094 135.894531 116.894531 135.507812 C 116.421875 135.117188 115.925781 134.75 115.417969 134.410156 C 114.90625 134.070312 114.378906 133.753906 113.839844 133.464844 C 113.296875 133.175781 112.742188 132.914062 112.175781 132.675781 C 111.609375 132.441406 111.03125 132.234375 110.441406 132.058594 C 109.855469 131.878906 109.261719 131.730469 108.65625 131.609375 C 108.054688 131.492188 107.449219 131.402344 106.835938 131.339844 C 106.226562 131.28125 105.613281 131.25 105 131.25 C 104.386719 131.25 103.773438 131.28125 103.164062 131.339844 C 102.550781 131.402344 101.945312 131.492188 101.34375 131.609375 C 100.738281 131.730469 100.144531 131.878906 99.558594 132.058594 C 98.96875 132.234375 98.390625 132.441406 97.824219 132.675781 C 97.257812 132.914062 96.703125 133.175781 96.160156 133.464844 C 95.621094 133.753906 95.09375 134.070312 94.582031 134.410156 C 94.074219 134.75 93.578125 135.117188 93.105469 135.507812 C 92.628906 135.894531 92.175781 136.308594 91.742188 136.742188 C 91.308594 137.175781 90.894531 137.628906 90.507812 138.105469 C 90.117188 138.578125 89.75 139.074219 89.410156 139.582031 C 89.070312 140.09375 88.753906 140.621094 88.464844 141.160156 C 88.175781 141.703125 87.914062 142.257812 87.675781 142.824219 C 87.441406 143.390625 87.234375 143.96875 87.058594 144.558594 C 86.878906 145.144531 86.730469 145.738281 86.609375 146.34375 C 86.492188 146.945312 86.402344 147.550781 86.339844 148.164062 C 86.28125 148.773438 86.25 149.386719 86.25 150 C 86.25 150.613281 86.28125 151.226562 86.339844 151.835938 C 86.402344 152.449219 86.492188 153.054688 86.609375 153.65625 C 86.730469 154.261719 86.878906 154.855469 87.058594 155.441406 C 87.234375 156.03125 87.441406 156.609375 87.675781 157.175781 C 87.914062 157.742188 88.175781 158.296875 88.464844 158.839844 C 88.753906 159.378906 89.070312 159.90625 89.410156 160.417969 C 89.75 160.925781 90.117188 161.421875 90.507812 161.894531 C 90.894531 162.371094 91.308594 162.824219 91.742188 163.257812 C 92.175781 163.691406 92.628906 164.105469 93.105469 164.492188 C 93.578125 164.882812 94.074219 165.25 94.582031 165.589844 C 95.09375 165.929688 95.621094 166.246094 96.160156 166.535156 C 96.703125 166.824219 97.257812 167.085938 97.824219 167.324219 C 98.390625 167.558594 98.96875 167.765625 99.558594 167.941406 C 100.144531 168.121094 100.738281 168.269531 101.34375 168.390625 C 101.945312 168.507812 102.550781 168.597656 103.164062 168.660156 C 103.773438 168.71875 104.386719 168.75 105 168.75 C 105.613281 168.75 106.226562 168.71875 106.835938 168.660156 C 107.449219 168.597656 108.054688 168.507812 108.65625 168.390625 C 109.261719 168.269531 109.855469 168.121094 110.441406 167.941406 C 111.03125 167.765625 111.609375 167.558594 112.175781 167.324219 C 112.742188 167.085938 113.296875 166.824219 113.839844 166.535156 C 114.378906 166.246094 114.90625 165.929688 115.417969 165.589844 C 115.925781 165.25 116.421875 164.882812 116.894531 164.492188 C 117.371094 164.105469 117.824219 163.691406 118.257812 163.257812 C 118.691406 162.824219 119.105469 162.371094 119.492188 161.894531 C 119.882812 161.421875 120.25 160.925781 120.589844 160.417969 C 120.929688 159.90625 121.246094 159.378906 121.535156 158.839844 C 121.824219 158.296875 122.085938 157.742188 122.324219 157.175781 C 122.558594 156.609375 122.765625 156.03125 122.941406 155.441406 C 123.121094 154.855469 123.269531 154.261719 123.390625 153.65625 C 123.507812 153.054688 123.597656 152.449219 123.660156 151.835938 C 123.71875 151.226562 123.75 150.613281 123.75 150 Z M 195 168.75 C 195.613281 168.75 196.226562 168.71875 196.835938 168.660156 C 197.449219 168.597656 198.054688 168.507812 198.65625 168.390625 C 199.261719 168.269531 199.855469 168.121094 200.441406 167.941406 C 201.03125 167.765625 201.609375 167.558594 202.175781 167.324219 C 202.742188 167.085938 203.296875 166.824219 203.839844 166.535156 C 204.378906 166.246094 204.90625 165.929688 205.417969 165.589844 C 205.925781 165.25 206.421875 164.882812 206.894531 164.492188 C 207.371094 164.105469 207.824219 163.691406 208.257812 163.257812 C 208.691406 162.824219 209.105469 162.371094 209.492188 161.894531 C 209.882812 161.421875 210.25 160.925781 210.589844 160.417969 C 210.929688 159.90625 211.246094 159.378906 211.535156 158.839844 C 211.824219 158.296875 212.085938 157.742188 212.324219 157.175781 C 212.558594 156.609375 212.765625 156.03125 212.941406 155.441406 C 213.121094 154.855469 213.269531 154.261719 213.390625 153.65625 C 213.507812 153.054688 213.597656 152.449219 213.660156 151.835938 C 213.71875 151.226562 213.75 150.613281 213.75 150 C 213.75 149.386719 213.71875 148.773438 213.660156 148.164062 C 213.597656 147.550781 213.507812 146.945312 213.390625 146.34375 C 213.269531 145.738281 213.121094 145.144531 212.941406 144.558594 C 212.765625 143.96875 212.558594 143.390625 212.324219 142.824219 C 212.085938 142.257812 211.824219 141.703125 211.535156 141.160156 C 211.246094 140.621094 210.929688 140.09375 210.589844 139.582031 C 210.25 139.074219 209.882812 138.578125 209.492188 138.105469 C 209.105469 137.628906 208.691406 137.175781 208.257812 136.742188 C 207.824219 136.308594 207.371094 135.894531 206.894531 135.507812 C 206.421875 135.117188 205.925781 134.75 205.417969 134.410156 C 204.90625 134.070312 204.378906 133.753906 203.839844 133.464844 C 203.296875 133.175781 202.742188 132.914062 202.175781 132.675781 C 201.609375 132.441406 201.03125 132.234375 200.441406 132.058594 C 199.855469 131.878906 199.261719 131.730469 198.65625 131.609375 C 198.054688 131.492188 197.449219 131.402344 196.835938 131.339844 C 196.226562 131.28125 195.613281 131.25 195 131.25 C 194.386719 131.25 193.773438 131.28125 193.164062 131.339844 C 192.550781 131.402344 191.945312 131.492188 191.34375 131.609375 C 190.738281 131.730469 190.144531 131.878906 189.558594 132.058594 C 188.96875 132.234375 188.390625 132.441406 187.824219 132.675781 C 187.257812 132.914062 186.703125 133.175781 186.160156 133.464844 C 185.621094 133.753906 185.09375 134.070312 184.582031 134.410156 C 184.074219 134.75 183.578125 135.117188 183.105469 135.507812 C 182.628906 135.894531 182.175781 136.308594 181.742188 136.742188 C 181.308594 137.175781 180.894531 137.628906 180.507812 138.105469 C 180.117188 138.578125 179.75 139.074219 179.410156 139.582031 C 179.070312 140.09375 178.753906 140.621094 178.464844 141.160156 C 178.175781 141.703125 177.914062 142.257812 177.675781 142.824219 C 177.441406 143.390625 177.234375 143.96875 177.058594 144.558594 C 176.878906 145.144531 176.730469 145.738281 176.609375 146.34375 C 176.492188 146.945312 176.402344 147.550781 176.339844 148.164062 C 176.28125 148.773438 176.25 149.386719 176.25 150 C 176.25 150.613281 176.28125 151.226562 176.339844 151.835938 C 176.402344 152.449219 176.492188 153.054688 176.609375 153.65625 C 176.730469 154.261719 176.878906 154.855469 177.058594 155.441406 C 177.234375 156.03125 177.441406 156.609375 177.675781 157.175781 C 177.914062 157.742188 178.175781 158.296875 178.464844 158.839844 C 178.753906 159.378906 179.070312 159.90625 179.410156 160.417969 C 179.75 160.925781 180.117188 161.421875 180.507812 161.894531 C 180.894531 162.371094 181.308594 162.824219 181.742188 163.257812 C 182.175781 163.691406 182.628906 164.105469 183.105469 164.492188 C 183.578125 164.882812 184.074219 165.25 184.582031 165.589844 C 185.09375 165.929688 185.621094 166.246094 186.160156 166.535156 C 186.703125 166.824219 187.257812 167.085938 187.824219 167.324219 C 188.390625 167.558594 188.96875 167.765625 189.558594 167.941406 C 190.144531 168.121094 190.738281 168.269531 191.34375 168.390625 C 191.945312 168.507812 192.550781 168.597656 193.164062 168.660156 C 193.773438 168.71875 194.386719 168.75 195 168.75 Z M 22.5 135 L 30 135 L 30 225 L 22.5 225 C 10.078125 225 0 214.921875 0 202.5 L 0 157.5 C 0 145.078125 10.078125 135 22.5 135 Z M 277.5 135 C 289.921875 135 300 145.078125 300 157.5 L 300 202.5 C 300 214.921875 289.921875 225 277.5 225 L 270 225 L 270 135 Z M 277.5 135 " fill-opacity="1" fill-rule="nonzero"/></svg>